<svg id="my-svg" width="100%" xmlns="http://www.w3.org/2000/svg" xmlns:xlink="http://www.w3.org/1999/xlink" class="flowchart" style="max-width: 752.272px; background-color: transparent;" viewBox="0 0 752.2724609375 70" role="graphics-document document" aria-roledescription="flowchart-v2"><style>#my-svg{font-family:"trebuchet ms",verdana,arial,sans-serif;font-size:16px;fill:#ccc;}@keyframes edge-animation-frame{from{stroke-dashoffset:0;}}@keyframes dash{to{stroke-dashoffset:0;}}#my-svg .edge-animation-slow{stroke-dasharray:9,5!important;stroke-dashoffset:900;animation:dash 50s linear infinite;stroke-linecap:round;}#my-svg .edge-animation-fast{stroke-dasharray:9,5!important;stroke-dashoffset:900;animation:dash 20s linear infinite;stroke-linecap:round;}#my-svg .error-icon{fill:#a44141;}#my-svg .error-text{fill:#ddd;stroke:#ddd;}#my-svg .edge-thickness-normal{stroke-width:1px;}#my-svg .edge-thickness-thick{stroke-width:3.5px;}#my-svg .edge-pattern-solid{stroke-dasharray:0;}#my-svg .edge-thickness-invisible{stroke-width:0;fill:none;}#my-svg .edge-pattern-dashed{stroke-dasharray:3;}#my-svg .edge-pattern-dotted{stroke-dasharray:2;}#my-svg .marker{fill:lightgrey;stroke:lightgrey;}#my-svg .marker.cross{stroke:lightgrey;}#my-svg svg{font-family:"trebuchet ms",verdana,arial,sans-serif;font-size:16px;}#my-svg p{margin:0;}#my-svg .label{font-family:"trebuchet ms",verdana,arial,sans-serif;color:#ccc;}#my-svg .cluster-label text{fill:#F9FFFE;}#my-svg .cluster-label span{color:#F9FFFE;}#my-svg .cluster-label span p{background-color:transparent;}#my-svg .label text,#my-svg span{fill:#ccc;color:#ccc;}#my-svg .node rect,#my-svg .node circle,#my-svg .node ellipse,#my-svg .node polygon,#my-svg .node path{fill:#1f2020;stroke:#ccc;stroke-width:1px;}#my-svg .rough-node .label text,#my-svg .node .label text,#my-svg .image-shape .label,#my-svg .icon-shape .label{text-anchor:middle;}#my-svg .node .katex path{fill:#000;stroke:#000;stroke-width:1px;}#my-svg .rough-node .label,#my-svg .node .label,#my-svg .image-shape .label,#my-svg .icon-shape .label{text-align:center;}#my-svg .node.clickable{cursor:pointer;}#my-svg .root .anchor path{fill:lightgrey!important;stroke-width:0;stroke:lightgrey;}#my-svg .arrowheadPath{fill:lightgrey;}#my-svg .edgePath .path{stroke:lightgrey;stroke-width:1px;}#my-svg .flowchart-link{stroke:lightgrey;fill:none;}#my-svg .edgeLabel{background-color:hsl(0, 0%, 34.4117647059%);text-align:center;}#my-svg .edgeLabel p{background-color:hsl(0, 0%, 34.4117647059%);}#my-svg .edgeLabel rect{opacity:0.5;background-color:hsl(0, 0%, 34.4117647059%);fill:hsl(0, 0%, 34.4117647059%);}#my-svg .labelBkg{background-color:rgba(87.75, 87.75, 87.75, 0.5);}#my-svg .cluster rect{fill:hsl(180, 1.5873015873%, 28.3529411765%);stroke:rgba(255, 255, 255, 0.25);stroke-width:1px;}#my-svg .cluster text{fill:#F9FFFE;}#my-svg .cluster span{color:#F9FFFE;}#my-svg div.mermaidTooltip{position:absolute;text-align:center;max-width:200px;padding:2px;font-family:"trebuchet ms",verdana,arial,sans-serif;font-size:12px;background:hsl(20, 1.5873015873%, 12.3529411765%);border:1px solid rgba(255, 255, 255, 0.25);border-radius:2px;pointer-events:none;z-index:100;}#my-svg .flowchartTitleText{text-anchor:middle;font-size:18px;fill:#ccc;}#my-svg rect.text{fill:none;stroke-width:0;}#my-svg .icon-shape,#my-svg .image-shape{background-color:hsl(0, 0%, 34.4117647059%);text-align:center;}#my-svg .icon-shape p,#my-svg .image-shape p{background-color:hsl(0, 0%, 34.4117647059%);padding:2px;}#my-svg .icon-shape .label rect,#my-svg .image-shape .label rect{opacity:0.5;background-color:hsl(0, 0%, 34.4117647059%);fill:hsl(0, 0%, 34.4117647059%);}#my-svg .label-icon{display:inline-block;height:1em;overflow:visible;vertical-align:-0.125em;}#my-svg .node .label-icon path{fill:currentColor;stroke:revert;stroke-width:revert;}#my-svg .node .neo-node{stroke:#ccc;}#my-svg [data-look="neo"].node rect,#my-svg [data-look="neo"].cluster rect,#my-svg [data-look="neo"].node polygon{stroke:url(#my-svg-gradient);filter:drop-shadow( 1px 2px 2px rgba(185,185,185,1));}#my-svg [data-look="neo"].node path{stroke:url(#my-svg-gradient);stroke-width:1px;}#my-svg [data-look="neo"].node .outer-path{filter:drop-shadow( 1px 2px 2px rgba(185,185,185,1));}#my-svg [data-look="neo"].node .neo-line path{stroke:#ccc;filter:none;}#my-svg [data-look="neo"].node circle{stroke:url(#my-svg-gradient);filter:drop-shadow( 1px 2px 2px rgba(185,185,185,1));}#my-svg [data-look="neo"].node circle .state-start{fill:#000000;}#my-svg [data-look="neo"].icon-shape .icon{fill:url(#my-svg-gradient);filter:drop-shadow( 1px 2px 2px rgba(185,185,185,1));}#my-svg [data-look="neo"].icon-shape .icon-neo path{stroke:url(#my-svg-gradient);filter:drop-shadow( 1px 2px 2px rgba(185,185,185,1));}#my-svg :root{--mermaid-font-family:"trebuchet ms",verdana,arial,sans-serif;}</style><g><marker id="my-svg_flowchart-v2-pointEnd" class="marker flowchart-v2" viewBox="0 0 10 10" refX="5" refY="5" markerUnits="userSpaceOnUse" markerWidth="8" markerHeight="8" orient="auto"><path d="M 0 0 L 10 5 L 0 10 z" class="arrowMarkerPath" style="stroke-width: 1; stroke-dasharray: 1, 0;"/></marker><marker id="my-svg_flowchart-v2-pointStart" class="marker flowchart-v2" viewBox="0 0 10 10" refX="4.5" refY="5" markerUnits="userSpaceOnUse" markerWidth="8" markerHeight="8" orient="auto"><path d="M 0 5 L 10 10 L 10 0 z" class="arrowMarkerPath" style="stroke-width: 1; stroke-dasharray: 1, 0;"/></marker><marker id="my-svg_flowchart-v2-pointEnd-margin" class="marker flowchart-v2" viewBox="0 0 11.5 14" refX="11.5" refY="7" markerUnits="userSpaceOnUse" markerWidth="10.5" markerHeight="14" orient="auto"><path d="M 0 0 L 11.5 7 L 0 14 z" class="arrowMarkerPath" style="stroke-width: 0; stroke-dasharray: 1, 0;"/></marker><marker id="my-svg_flowchart-v2-pointStart-margin" class="marker flowchart-v2" viewBox="0 0 11.5 14" refX="1" refY="7" markerUnits="userSpaceOnUse" markerWidth="11.5" markerHeight="14" orient="auto"><polygon points="0,7 11.5,14 11.5,0" class="arrowMarkerPath" style="stroke-width: 0; stroke-dasharray: 1, 0;"/></marker><marker id="my-svg_flowchart-v2-circleEnd" class="marker flowchart-v2" viewBox="0 0 10 10" refX="11" refY="5" markerUnits="userSpaceOnUse" markerWidth="11" markerHeight="11" orient="auto"><circle cx="5" cy="5" r="5" class="arrowMarkerPath" style="stroke-width: 1; stroke-dasharray: 1, 0;"/></marker><marker id="my-svg_flowchart-v2-circleStart" class="marker flowchart-v2" viewBox="0 0 10 10" refX="-1" refY="5" markerUnits="userSpaceOnUse" markerWidth="11" markerHeight="11" orient="auto"><circle cx="5" cy="5" r="5" class="arrowMarkerPath" style="stroke-width: 1; stroke-dasharray: 1, 0;"/></marker><marker id="my-svg_flowchart-v2-circleEnd-margin" class="marker flowchart-v2" viewBox="0 0 10 10" refY="5" refX="12.25" markerUnits="userSpaceOnUse" markerWidth="14" markerHeight="14" orient="auto"><circle cx="5" cy="5" r="5" class="arrowMarkerPath" style="stroke-width: 0; stroke-dasharray: 1, 0;"/></marker><marker id="my-svg_flowchart-v2-circleStart-margin" class="marker flowchart-v2" viewBox="0 0 10 10" refX="-2" refY="5" markerUnits="userSpaceOnUse" markerWidth="14" markerHeight="14" orient="auto"><circle cx="5" cy="5" r="5" class="arrowMarkerPath" style="stroke-width: 0; stroke-dasharray: 1, 0;"/></marker><marker id="my-svg_flowchart-v2-crossEnd" class="marker cross flowchart-v2" viewBox="0 0 11 11" refX="12" refY="5.2" markerUnits="userSpaceOnUse" markerWidth="11" markerHeight="11" orient="auto"><path d="M 1,1 l 9,9 M 10,1 l -9,9" class="arrowMarkerPath" style="stroke-width: 2; stroke-dasharray: 1, 0;"/></marker><marker id="my-svg_flowchart-v2-crossStart" class="marker cross flowchart-v2" viewBox="0 0 11 11" refX="-1" refY="5.2" markerUnits="userSpaceOnUse" markerWidth="11" markerHeight="11" orient="auto"><path d="M 1,1 l 9,9 M 10,1 l -9,9" class="arrowMarkerPath" style="stroke-width: 2; stroke-dasharray: 1, 0;"/></marker><marker id="my-svg_flowchart-v2-crossEnd-margin" class="marker cross flowchart-v2" viewBox="0 0 15 15" refX="17.7" refY="7.5" markerUnits="userSpaceOnUse" markerWidth="12" markerHeight="12" orient="auto"><path d="M 1,1 L 14,14 M 1,14 L 14,1" class="arrowMarkerPath" style="stroke-width: 2.5;"/></marker><marker id="my-svg_flowchart-v2-crossStart-margin" class="marker cross flowchart-v2" viewBox="0 0 15 15" refX="-3.5" refY="7.5" markerUnits="userSpaceOnUse" markerWidth="12" markerHeight="12" orient="auto"><path d="M 1,1 L 14,14 M 1,14 L 14,1" class="arrowMarkerPath" style="stroke-width: 2.5; stroke-dasharray: 1, 0;"/></marker><g class="root"><g class="clusters"/><g class="edgePaths"><path d="M102.438,35L106.604,35C110.771,35,119.104,35,126.854,35.07C134.604,35.141,141.771,35.281,145.355,35.351L148.938,35.422" id="my-svg-L_keep_storageHygiene_0" class="edge-thickness-normal edge-pattern-solid edge-thickness-normal edge-pattern-solid flowchart-link" style=";" data-edge="true" data-et="edge" data-id="L_keep_storageHygiene_0" data-points="W3sieCI6MTAyLjQzNzUsInkiOjM1fSx7IngiOjEyNy40Mzc1LCJ5IjozNX0seyJ4IjoxNTIuOTM3NDk5OTk5OTk5OCwieSI6MzUuNX1d" data-look="classic" marker-end="url(#my-svg_flowchart-v2-pointEnd)"/><path d="M342.308,35.5L346.391,35.417C350.475,35.333,358.641,35.167,366.891,35.083C375.141,35,383.475,35,387.641,35L391.808,35" id="my-svg-L_storageHygiene_reflect_0" class="edge-thickness-invisible edge-pattern-solid" style=";" data-edge="true" data-et="edge" data-id="L_storageHygiene_reflect_0" data-points="W3sieCI6MzQyLjMwODA4NzQzMTgyNzEsInkiOjM1LjV9LHsieCI6MzY2LjgwODA5MDIwOTk2MDk0LCJ5IjozNX0seyJ4IjozOTEuODA4MDkwMjA5OTYwOTQsInkiOjM1fV0=" data-look="classic"/><path d="M500.386,35L504.553,35C508.72,35,517.053,35,524.803,35.07C532.553,35.141,539.72,35.281,543.304,35.351L546.887,35.422" id="my-svg-L_reflect_knowledgeConsolidation_0" class="edge-thickness-normal edge-pattern-solid edge-thickness-normal edge-pattern-solid flowchart-link" style=";" data-edge="true" data-et="edge" data-id="L_reflect_knowledgeConsolidation_0" data-points="W3sieCI6NTAwLjM4NjIxNTIwOTk2MDk0LCJ5IjozNX0seyJ4Ijo1MjUuMzg2MjE1MjA5OTYwOSwieSI6MzV9LHsieCI6NTUwLjg4NjIxNTIwOTk1OTEsInkiOjM1LjUwMDAwMDAwMDAwMDAxfV0=" data-look="classic" marker-end="url(#my-svg_flowchart-v2-pointEnd)"/></g><g class="edgeLabels"><g class="edgeLabel"><g class="label" data-id="L_keep_storageHygiene_0" transform="translate(0, 0)"><foreignObject width="0" height="0"><div xmlns="http://www.w3.org/1999/xhtml" class="labelBkg" style="display: table-cell; white-space: nowrap; line-height: 1.5; max-width: 200px; text-align: center;"><span class="edgeLabel"></span></div></foreignObject></g></g><g class="edgeLabel"><g class="label" data-id="L_storageHygiene_reflect_0" transform="translate(0, 0)"><foreignObject width="0" height="0"><div xmlns="http://www.w3.org/1999/xhtml" class="labelBkg" style="display: table-cell; white-space: nowrap; line-height: 1.5; max-width: 200px; text-align: center;"><span class="edgeLabel"></span></div></foreignObject></g></g><g class="edgeLabel"><g class="label" data-id="L_reflect_knowledgeConsolidation_0" transform="translate(0, 0)"><foreignObject width="0" height="0"><div xmlns="http://www.w3.org/1999/xhtml" class="labelBkg" style="display: table-cell; white-space: nowrap; line-height: 1.5; max-width: 200px; text-align: center;"><span class="edgeLabel"></span></div></foreignObject></g></g></g><g class="nodes"><g class="node default" id="my-svg-flowchart-keep-0" data-look="classic" transform="translate(55.21875, 35)"><rect class="basic label-container" style="" x="-47.21875" y="-27" width="94.4375" height="54"/><g class="label" style="" transform="translate(-17.21875, -12)"><rect/><foreignObject width="34.4375" height="24"><div xmlns="http://www.w3.org/1999/xhtml" style="display: table-cell; white-space: nowrap; line-height: 1.5; max-width: 200px; text-align: center;"><span class="nodeLabel"><p>keep</p></span></div></foreignObject></g></g><g class="node default" id="my-svg-flowchart-storageHygiene-1" data-look="classic" transform="translate(247.12279510498047, 35)"><g class="basic label-container outer-path"><path d="M-75.1953125 -19.5 C-21.0903004011828 -19.5, 33.0147116976344 -19.5, 75.1953125 -19.5 C75.1953125 -19.5, 75.1953125 -19.5, 75.1953125 -19.5 C75.62876853326006 -19.486099908684338, 76.0622245665201 -19.472199817368672, 76.4446817896239 -19.45993515863156 C76.69635636143195 -19.435656415372193, 76.94803093324 -19.411377672112827, 77.68891715284786 -19.3399052695533 C78.1609775673484 -19.263586202620044, 78.63303798184893 -19.18726713568679, 78.92290575967675 -19.140403561325776 C79.32351525641153 -19.04896705791734, 79.7241247531463 -18.957530554508907, 80.14157688623538 -18.862249829261074 C80.40705158567788 -18.78345833197168, 80.67252628512036 -18.704666834682282, 81.3399227514606 -18.50658706670804 C81.705830523028 -18.371929624356877, 82.07173829459539 -18.237272182005714, 82.5130190951478 -18.074876768247425 C82.90143906209616 -17.902934770948324, 83.28985902904452 -17.730992773649223, 83.65604541279238 -17.568892924097174 C83.977759130346 -17.40105508371692, 84.29947284789964 -17.233217243336664, 84.76430476407678 -16.990714730406097 C85.18107479208481 -16.738066290215084, 85.59784482009285 -16.48541785002407, 85.8332430736057 -16.342718045390892 C86.1829528958317 -16.09877561210024, 86.53266271805771 -15.85483317880959, 86.85846784457871 -15.627565626425154 C87.19117164697565 -15.362243197633612, 87.52387544937257 -15.09692076884207, 87.83576620850187 -14.848196188198123 C88.06367437513151 -14.641216021384727, 88.29158254176116 -14.434235854571329, 88.76112223676799 -14.007812326905688 C89.00523901606748 -13.755741709918652, 89.24935579536695 -13.503671092931617, 89.63073344296865 -13.10986736009568 C89.88407211022015 -12.81228134616353, 90.13741077747164 -12.51469533223138, 90.44102640812658 -12.158051136245305 C90.66199197173108 -11.86197741139223, 90.88295753533559 -11.565903686539153, 91.18867146464063 -11.156274872382312 C91.34290362516207 -10.919332856687353, 91.4971357856835 -10.682390840992392, 91.87059637860425 -10.108655082055241 C92.07503690587554 -9.745650224036853, 92.27947743314682 -9.382645366018465, 92.4839989742735 -9.019496659696287 C92.65744374294884 -8.659334886418407, 92.83088851162418 -8.299173113140528, 93.02635864880834 -7.893275190886684 C93.20910956896938 -7.441876884840254, 93.39186048913041 -6.990478578793825, 93.49544672997033 -6.734618561215508 C93.63020658480364 -6.328743349524617, 93.76496643963695 -5.922868137833725, 93.88933563421489 -5.548287939305138 C94.00118720376786 -5.1217494278227935, 94.11303877332081 -4.695210916340448, 94.20640678754556 -4.339158212148133 C94.28995426105158 -3.9101595934595292, 94.37350173455759 -3.4811609747709253, 94.44535727658177 -3.1121979531509023 C94.49985234510154 -2.6895449629800403, 94.55434741362131 -2.2668919728091783, 94.60520520250937 -1.872449005199798 C94.63168428358601 -1.4600159439015254, 94.65816336466266 -1.047582882603253, 94.68529371591342 -0.6250057626472757 C94.68529371591342 -0.32644426720849146, 94.68529371591342 -0.027882771769707215, 94.68529371591342 0.625005762647271 C94.66043385375306 1.0122181823143341, 94.63557399159271 1.3994306019813973, 94.60520520250937 1.8724490051997846 C94.5557183437557 2.256259309407665, 94.50623148500202 2.6400696136155455, 94.44535727658177 3.1121979531508885 C94.3700134579884 3.4990725377061382, 94.29466963939504 3.8859471222613884, 94.20640678754556 4.339158212148129 C94.13638227481833 4.606192027992825, 94.06635776209112 4.873225843837522, 93.88933563421489 5.548287939305125 C93.77293813273278 5.898858668345915, 93.65654063125065 6.249429397386705, 93.49544672997033 6.734618561215495 C93.3465746610126 7.102335449786745, 93.19770259205485 7.470052338357995, 93.02635864880834 7.893275190886679 C92.86469025770624 8.2289830641596, 92.70302186660416 8.56469093743252, 92.4839989742735 9.019496659696284 C92.26737565812016 9.404133293015903, 92.05075234196681 9.788769926335522, 91.87059637860425 10.108655082055236 C91.69588979290171 10.377051312981362, 91.52118320719917 10.645447543907487, 91.18867146464065 11.156274872382301 C91.03189445953201 11.366341776548893, 90.87511745442336 11.576408680715485, 90.44102640812659 12.158051136245302 C90.14015811918617 12.511468148325338, 89.83928983024576 12.864885160405375, 89.63073344296866 13.10986736009567 C89.3583360162046 13.391140067474215, 89.08593858944054 13.672412774852761, 88.76112223676799 14.007812326905684 C88.44764113303845 14.292507571057364, 88.1341600293089 14.577202815209043, 87.8357662085019 14.848196188198111 C87.56814351248417 15.06161816653321, 87.30052081646645 15.275040144868306, 86.85846784457871 15.627565626425152 C86.52098671348955 15.862977854150245, 86.1835055824004 16.098390081875337, 85.8332430736057 16.34271804539089 C85.61250979604552 16.476527855420596, 85.39177651848534 16.6103376654503, 84.76430476407678 16.990714730406093 C84.3578003649678 17.202787815042754, 83.95129596585882 17.414860899679418, 83.65604541279238 17.56889292409717 C83.27673389348676 17.73680288181733, 82.89742237418113 17.90471283953749, 82.5130190951478 18.07487676824742 C82.22035466520772 18.182579983825704, 81.92769023526765 18.290283199403987, 81.33992275146062 18.506587066708033 C80.99941466436836 18.607648079593595, 80.6589065772761 18.708709092479154, 80.14157688623541 18.86224982926107 C79.75697722517141 18.950032192151593, 79.37237756410741 19.03781455504211, 78.92290575967677 19.140403561325773 C78.51259840411605 19.206738872591764, 78.10229104855532 19.27307418385776, 77.68891715284788 19.3399052695533 C77.42097134750074 19.365753679143157, 77.1530255421536 19.39160208873302, 76.4446817896239 19.45993515863156 C76.03237913495583 19.473156902268332, 75.62007648028776 19.486378645905102, 75.1953125 19.5 C75.1953125 19.5, 75.1953125 19.5, 75.1953125 19.5 C35.15024912935954 19.5, -4.894814241280926 19.5, -75.1953125 19.5 C-75.54654794926475 19.488736562780407, -75.89778339852948 19.477473125560817, -76.4446817896239 19.45993515863156 C-76.9209740065015 19.413987821294576, -77.39726622337909 19.36804048395759, -77.68891715284786 19.3399052695533 C-77.9410847626428 19.299136765990674, -78.19325237243774 19.258368262428046, -78.92290575967675 19.140403561325773 C-79.3328275346831 19.046841591170146, -79.74274930968947 18.953279621014516, -80.14157688623538 18.862249829261074 C-80.4977413983176 18.75654207162075, -80.8539059103998 18.650834313980425, -81.33992275146059 18.506587066708043 C-81.77309806992042 18.347174545286077, -82.20627338838025 18.18776202386411, -82.5130190951478 18.074876768247425 C-82.77817564055027 17.957499831187203, -83.04333218595274 17.840122894126985, -83.65604541279238 17.568892924097174 C-84.05840220115552 17.35898364532995, -84.46075898951865 17.149074366562722, -84.76430476407678 16.990714730406097 C-85.15769485460898 16.752239345708706, -85.55108494514116 16.513763961011314, -85.83324307360569 16.3427180453909 C-86.24247491347579 16.057255629258346, -86.65170675334589 15.771793213125791, -86.85846784457871 15.627565626425156 C-87.07351294016406 15.456072885286169, -87.2885580357494 15.284580144147181, -87.83576620850187 14.848196188198125 C-88.04213387618444 14.660778532598096, -88.24850154386701 14.473360876998067, -88.76112223676797 14.007812326905697 C-89.08404553829828 13.674367505579534, -89.40696883982858 13.340922684253371, -89.63073344296865 13.109867360095677 C-89.85557075916329 12.845760654887744, -90.08040807535791 12.581653949679811, -90.44102640812658 12.158051136245307 C-90.72694224226412 11.774949965969334, -91.01285807640167 11.39184879569336, -91.18867146464063 11.156274872382316 C-91.42984456789766 10.785768221733488, -91.67101767115467 10.415261571084658, -91.87059637860425 10.108655082055249 C-92.10445222366833 9.693420348671822, -92.33830806873243 9.278185615288395, -92.4839989742735 9.019496659696289 C-92.65750947772061 8.65919838675835, -92.8310199811677 8.298900113820409, -93.02635864880834 7.893275190886686 C-93.15761693649313 7.569064682598903, -93.28887522417791 7.24485417431112, -93.49544672997033 6.73461856121551 C-93.60255307564681 6.412031313116651, -93.7096594213233 6.089444065017791, -93.88933563421489 5.5482879393051325 C-93.96205828990249 5.270964934969947, -94.0347809455901 4.9936419306347615, -94.20640678754556 4.339158212148136 C-94.26484601414917 4.039085134673486, -94.3232852407528 3.7390120571988357, -94.44535727658177 3.112197953150904 C-94.49581140150954 2.7208857235050905, -94.5462655264373 2.329573493859277, -94.60520520250937 1.872449005199809 C-94.62702547296045 1.5325806799187758, -94.64884574341156 1.1927123546377427, -94.68529371591342 0.6250057626472781 C-94.68529371591342 0.24129186245628348, -94.68529371591342 -0.14242203773471118, -94.68529371591342 -0.6250057626472687 C-94.66189320061694 -0.9894876769458962, -94.63849268532046 -1.3539695912445238, -94.60520520250937 -1.8724490051997822 C-94.56949291351305 -2.14942646646608, -94.53378062451674 -2.4264039277323777, -94.44535727658177 -3.112197953150895 C-94.3771948806837 -3.462197449960039, -94.30903248478562 -3.812196946769183, -94.20640678754556 -4.339158212148126 C-94.08549244310316 -4.800257012115374, -93.96457809866077 -5.2613558120826225, -93.88933563421489 -5.548287939305123 C-93.77317708759092 -5.898138974385453, -93.65701854096694 -6.2479900094657825, -93.49544672997033 -6.734618561215485 C-93.32440194832023 -7.157102478817106, -93.15335716667013 -7.579586396418727, -93.02635864880834 -7.893275190886676 C-92.84507140070419 -8.269722040500676, -92.66378415260003 -8.646168890114676, -92.4839989742735 -9.019496659696282 C-92.31956074499244 -9.311473386961106, -92.15512251571138 -9.603450114225932, -91.87059637860425 -10.108655082055243 C-91.6286324583863 -10.480376639920122, -91.38666853816838 -10.852098197784999, -91.18867146464063 -11.156274872382308 C-90.93166608779163 -11.500638663688491, -90.67466071094262 -11.845002454994676, -90.44102640812659 -12.158051136245302 C-90.21285832032486 -12.426070355309205, -89.98469023252312 -12.694089574373109, -89.63073344296866 -13.10986736009567 C-89.41412186118296 -13.333536602431005, -89.19751027939726 -13.557205844766342, -88.76112223676799 -14.007812326905677 C-88.42105500130705 -14.31665239246531, -88.08098776584612 -14.625492458024944, -87.8357662085019 -14.848196188198107 C-87.62105894174833 -15.019419519833752, -87.40635167499475 -15.190642851469397, -86.85846784457871 -15.627565626425149 C-86.49761815831185 -15.879278746633766, -86.13676847204498 -16.130991866842383, -85.83324307360571 -16.342718045390885 C-85.53850460193222 -16.521390238994872, -85.24376613025873 -16.70006243259886, -84.76430476407678 -16.99071473040609 C-84.50570347077412 -17.125626859480057, -84.24710217747146 -17.260538988554025, -83.6560454127924 -17.56889292409717 C-83.39267811145021 -17.685477815887943, -83.12931081010802 -17.80206270767871, -82.51301909514781 -18.07487676824742 C-82.21926447182847 -18.18298118506691, -81.92550984850912 -18.2910856018864, -81.33992275146062 -18.506587066708033 C-81.07820005762483 -18.58426498842804, -80.81647736378905 -18.66194291014805, -80.14157688623541 -18.862249829261067 C-79.69219413523167 -18.964818509681166, -79.24281138422793 -19.06738719010126, -78.92290575967677 -19.140403561325773 C-78.5032256587184 -19.20825418538093, -78.08354555776005 -19.276104809436085, -77.68891715284788 -19.3399052695533 C-77.26286429564176 -19.381006076284443, -76.83681143843566 -19.42210688301559, -76.4446817896239 -19.45993515863156 C-76.00527576071926 -19.47402605472658, -75.5658697318146 -19.488116950821603, -75.1953125 -19.5 C-75.1953125 -19.5, -75.1953125 -19.5, -75.1953125 -19.5" stroke="none" stroke-width="0" fill="#1f2020" style=""/><path d="M-75.1953125 -19.5 C-44.85272197422508 -19.5, -14.510131448450146 -19.5, 75.1953125 -19.5 M-75.1953125 -19.5 C-40.90408421407353 -19.5, -6.612855928147056 -19.5, 75.1953125 -19.5 M75.1953125 -19.5 C75.1953125 -19.5, 75.1953125 -19.5, 75.1953125 -19.5 M75.1953125 -19.5 C75.1953125 -19.5, 75.1953125 -19.5, 75.1953125 -19.5 M75.1953125 -19.5 C75.47752277068093 -19.49095006590823, 75.75973304136187 -19.481900131816463, 76.4446817896239 -19.45993515863156 M75.1953125 -19.5 C75.52398961202616 -19.48945996474851, 75.85266672405231 -19.47891992949702, 76.4446817896239 -19.45993515863156 M76.4446817896239 -19.45993515863156 C76.71820634899247 -19.433548573350684, 76.99173090836103 -19.40716198806981, 77.68891715284786 -19.3399052695533 M76.4446817896239 -19.45993515863156 C76.94106724169826 -19.412049451060795, 77.43745269377261 -19.36416374349003, 77.68891715284786 -19.3399052695533 M77.68891715284786 -19.3399052695533 C78.14124220058657 -19.26677686366804, 78.59356724832529 -19.19364845778278, 78.92290575967675 -19.140403561325776 M77.68891715284786 -19.3399052695533 C77.94675987577024 -19.29821925771139, 78.20460259869262 -19.25653324586948, 78.92290575967675 -19.140403561325776 M78.92290575967675 -19.140403561325776 C79.225881266529 -19.0712513789867, 79.52885677338125 -19.002099196647627, 80.14157688623538 -18.862249829261074 M78.92290575967675 -19.140403561325776 C79.35365898967677 -19.04208694750579, 79.7844122196768 -18.943770333685805, 80.14157688623538 -18.862249829261074 M80.14157688623538 -18.862249829261074 C80.5500932106754 -18.741004328513228, 80.9586095351154 -18.619758827765377, 81.3399227514606 -18.50658706670804 M80.14157688623538 -18.862249829261074 C80.58339063121834 -18.731121828877807, 81.0252043762013 -18.599993828494537, 81.3399227514606 -18.50658706670804 M81.3399227514606 -18.50658706670804 C81.76197446727046 -18.35126813388672, 82.18402618308032 -18.195949201065396, 82.5130190951478 -18.074876768247425 M81.3399227514606 -18.50658706670804 C81.58176861749644 -18.417585552408177, 81.82361448353225 -18.328584038108314, 82.5130190951478 -18.074876768247425 M82.5130190951478 -18.074876768247425 C82.7977014696176 -17.948856325872235, 83.08238384408742 -17.822835883497046, 83.65604541279238 -17.568892924097174 M82.5130190951478 -18.074876768247425 C82.93297040787891 -17.888976779514444, 83.35292172061001 -17.70307679078146, 83.65604541279238 -17.568892924097174 M83.65604541279238 -17.568892924097174 C83.99286349866946 -17.39317514443738, 84.32968158454655 -17.217457364777587, 84.76430476407678 -16.990714730406097 M83.65604541279238 -17.568892924097174 C84.04548641016653 -17.36572180521594, 84.4349274075407 -17.162550686334708, 84.76430476407678 -16.990714730406097 M84.76430476407678 -16.990714730406097 C85.11929856843757 -16.775515400027427, 85.47429237279837 -16.56031606964876, 85.8332430736057 -16.342718045390892 M84.76430476407678 -16.990714730406097 C84.9920584496528 -16.852649107780696, 85.2198121352288 -16.714583485155295, 85.8332430736057 -16.342718045390892 M85.8332430736057 -16.342718045390892 C86.09726160018275 -16.15855015042855, 86.36128012675981 -15.974382255466208, 86.85846784457871 -15.627565626425154 M85.8332430736057 -16.342718045390892 C86.09750434670065 -16.158380820966, 86.36176561979558 -15.974043596541106, 86.85846784457871 -15.627565626425154 M86.85846784457871 -15.627565626425154 C87.24799284356395 -15.316929805429979, 87.63751784254919 -15.006293984434803, 87.83576620850187 -14.848196188198123 M86.85846784457871 -15.627565626425154 C87.161686119102 -15.38575712146999, 87.46490439362529 -15.143948616514823, 87.83576620850187 -14.848196188198123 M87.83576620850187 -14.848196188198123 C88.1095379235841 -14.599563960163087, 88.38330963866633 -14.35093173212805, 88.76112223676799 -14.007812326905688 M87.83576620850187 -14.848196188198123 C88.11860736337391 -14.591327334910204, 88.40144851824596 -14.334458481622285, 88.76112223676799 -14.007812326905688 M88.76112223676799 -14.007812326905688 C89.09333095101185 -13.664779554606216, 89.42553966525571 -13.321746782306743, 89.63073344296865 -13.10986736009568 M88.76112223676799 -14.007812326905688 C89.0591967377949 -13.70002593222374, 89.35727123882181 -13.39223953754179, 89.63073344296865 -13.10986736009568 M89.63073344296865 -13.10986736009568 C89.88084956958559 -12.81606672576063, 90.13096569620255 -12.522266091425578, 90.44102640812658 -12.158051136245305 M89.63073344296865 -13.10986736009568 C89.92617172881512 -12.762828738625723, 90.22161001466158 -12.415790117155767, 90.44102640812658 -12.158051136245305 M90.44102640812658 -12.158051136245305 C90.67046506357912 -11.85062424023042, 90.89990371903164 -11.543197344215537, 91.18867146464063 -11.156274872382312 M90.44102640812658 -12.158051136245305 C90.68553336562877 -11.830434088234442, 90.93004032313095 -11.502817040223578, 91.18867146464063 -11.156274872382312 M91.18867146464063 -11.156274872382312 C91.3636212386755 -10.887505038872508, 91.53857101271039 -10.618735205362706, 91.87059637860425 -10.108655082055241 M91.18867146464063 -11.156274872382312 C91.34138228329766 -10.921670046328568, 91.49409310195469 -10.687065220274825, 91.87059637860425 -10.108655082055241 M91.87059637860425 -10.108655082055241 C92.03870485692947 -9.810161455959495, 92.20681333525468 -9.511667829863748, 92.4839989742735 -9.019496659696287 M91.87059637860425 -10.108655082055241 C92.01070206180667 -9.859883254290503, 92.15080774500909 -9.611111426525765, 92.4839989742735 -9.019496659696287 M92.4839989742735 -9.019496659696287 C92.62769078469063 -8.721117540852909, 92.77138259510775 -8.42273842200953, 93.02635864880834 -7.893275190886684 M92.4839989742735 -9.019496659696287 C92.62917453656516 -8.71803649833824, 92.77435009885681 -8.41657633698019, 93.02635864880834 -7.893275190886684 M93.02635864880834 -7.893275190886684 C93.15185649096868 -7.583293094414923, 93.27735433312903 -7.273310997943161, 93.49544672997033 -6.734618561215508 M93.02635864880834 -7.893275190886684 C93.20330600940918 -7.4562117891581465, 93.38025337001001 -7.01914838742961, 93.49544672997033 -6.734618561215508 M93.49544672997033 -6.734618561215508 C93.6400387148804 -6.299130540270579, 93.78463069979048 -5.86364251932565, 93.88933563421489 -5.548287939305138 M93.49544672997033 -6.734618561215508 C93.59692766958595 -6.428974139885189, 93.69840860920159 -6.12332971855487, 93.88933563421489 -5.548287939305138 M93.88933563421489 -5.548287939305138 C93.98375379765875 -5.188230561002807, 94.07817196110261 -4.828173182700477, 94.20640678754556 -4.339158212148133 M93.88933563421489 -5.548287939305138 C93.96859789815983 -5.246026574400602, 94.04786016210475 -4.943765209496067, 94.20640678754556 -4.339158212148133 M94.20640678754556 -4.339158212148133 C94.27507233304345 -3.986575148484634, 94.34373787854135 -3.6339920848211356, 94.44535727658177 -3.1121979531509023 M94.20640678754556 -4.339158212148133 C94.27774118722178 -3.972871146341491, 94.34907558689798 -3.6065840805348484, 94.44535727658177 -3.1121979531509023 M94.44535727658177 -3.1121979531509023 C94.48515843273465 -2.8035080456564856, 94.52495958888753 -2.4948181381620684, 94.60520520250937 -1.872449005199798 M94.44535727658177 -3.1121979531509023 C94.48955371898792 -2.76941907342357, 94.53375016139407 -2.4266401936962376, 94.60520520250937 -1.872449005199798 M94.60520520250937 -1.872449005199798 C94.62163010595391 -1.6166178761076122, 94.63805500939846 -1.3607867470154265, 94.68529371591342 -0.6250057626472757 M94.60520520250937 -1.872449005199798 C94.62768169540304 -1.5223594856823153, 94.65015818829671 -1.1722699661648326, 94.68529371591342 -0.6250057626472757 M94.68529371591342 -0.6250057626472757 C94.68529371591342 -0.2413725484414403, 94.68529371591342 0.1422606657643951, 94.68529371591342 0.625005762647271 M94.68529371591342 -0.6250057626472757 C94.68529371591342 -0.15292237834454198, 94.68529371591342 0.31916100595819175, 94.68529371591342 0.625005762647271 M94.68529371591342 0.625005762647271 C94.65383707346048 1.1149683601965765, 94.62238043100754 1.6049309577458821, 94.60520520250937 1.8724490051997846 M94.68529371591342 0.625005762647271 C94.66686846014606 0.911993993822558, 94.64844320437871 1.1989822249978448, 94.60520520250937 1.8724490051997846 M94.60520520250937 1.8724490051997846 C94.56701041306752 2.1686802496964668, 94.52881562362568 2.4649114941931494, 94.44535727658177 3.1121979531508885 M94.60520520250937 1.8724490051997846 C94.54205624016883 2.362219886939905, 94.47890727782828 2.851990768680025, 94.44535727658177 3.1121979531508885 M94.44535727658177 3.1121979531508885 C94.38112528859784 3.4420156360129317, 94.3168933006139 3.7718333188749753, 94.20640678754556 4.339158212148129 M94.44535727658177 3.1121979531508885 C94.35904034290546 3.5554171644883956, 94.27272340922914 3.9986363758259023, 94.20640678754556 4.339158212148129 M94.20640678754556 4.339158212148129 C94.10250541008136 4.73537919556097, 93.99860403261717 5.1316001789738115, 93.88933563421489 5.548287939305125 M94.20640678754556 4.339158212148129 C94.1304765533418 4.628713103538759, 94.05454631913803 4.918267994929391, 93.88933563421489 5.548287939305125 M93.88933563421489 5.548287939305125 C93.77387634181045 5.896032932087268, 93.65841704940601 6.243777924869409, 93.49544672997033 6.734618561215495 M93.88933563421489 5.548287939305125 C93.80600974230948 5.7992522495462815, 93.72268385040407 6.0502165597874376, 93.49544672997033 6.734618561215495 M93.49544672997033 6.734618561215495 C93.38632284079668 7.004156677241272, 93.27719895162303 7.273694793267048, 93.02635864880834 7.893275190886679 M93.49544672997033 6.734618561215495 C93.33835576182621 7.122636289678727, 93.18126479368209 7.51065401814196, 93.02635864880834 7.893275190886679 M93.02635864880834 7.893275190886679 C92.90362417292916 8.148135956146891, 92.78088969704997 8.402996721407105, 92.4839989742735 9.019496659696284 M93.02635864880834 7.893275190886679 C92.91037445427983 8.134118852489324, 92.79439025975134 8.37496251409197, 92.4839989742735 9.019496659696284 M92.4839989742735 9.019496659696284 C92.30760658732837 9.332699204383406, 92.13121420038323 9.645901749070529, 91.87059637860425 10.108655082055236 M92.4839989742735 9.019496659696284 C92.25352389703686 9.428728497462222, 92.02304881980021 9.83796033522816, 91.87059637860425 10.108655082055236 M91.87059637860425 10.108655082055236 C91.72940911649974 10.325556630736118, 91.58822185439521 10.542458179417, 91.18867146464065 11.156274872382301 M91.87059637860425 10.108655082055236 C91.6301015577407 10.478119708803359, 91.38960673687717 10.847584335551483, 91.18867146464065 11.156274872382301 M91.18867146464065 11.156274872382301 C90.99922056584252 11.41012181743985, 90.8097696670444 11.663968762497397, 90.44102640812659 12.158051136245302 M91.18867146464065 11.156274872382301 C90.9851106587047 11.429027807565552, 90.78154985276875 11.701780742748802, 90.44102640812659 12.158051136245302 M90.44102640812659 12.158051136245302 C90.23565360381171 12.399293718237177, 90.03028079949682 12.640536300229051, 89.63073344296866 13.10986736009567 M90.44102640812659 12.158051136245302 C90.13518446777186 12.517310482285373, 89.82934252741713 12.876569828325444, 89.63073344296866 13.10986736009567 M89.63073344296866 13.10986736009567 C89.32736944749362 13.423115592070873, 89.02400545201859 13.736363824046077, 88.76112223676799 14.007812326905684 M89.63073344296866 13.10986736009567 C89.32393089550703 13.426666179307395, 89.0171283480454 13.74346499851912, 88.76112223676799 14.007812326905684 M88.76112223676799 14.007812326905684 C88.52086347455125 14.226008977852429, 88.28060471233451 14.444205628799173, 87.8357662085019 14.848196188198111 M88.76112223676799 14.007812326905684 C88.55563598409793 14.194429504712318, 88.35014973142788 14.381046682518951, 87.8357662085019 14.848196188198111 M87.8357662085019 14.848196188198111 C87.45429842409158 15.152406594981272, 87.07283063968124 15.456617001764432, 86.85846784457871 15.627565626425152 M87.8357662085019 14.848196188198111 C87.46873789837628 15.14089149848977, 87.10170958825064 15.433586808781431, 86.85846784457871 15.627565626425152 M86.85846784457871 15.627565626425152 C86.4734179081472 15.896159793536677, 86.08836797171568 16.164753960648202, 85.8332430736057 16.34271804539089 M86.85846784457871 15.627565626425152 C86.48296506059614 15.889500113277863, 86.10746227661357 16.151434600130575, 85.8332430736057 16.34271804539089 M85.8332430736057 16.34271804539089 C85.40618991791507 16.60160017801346, 84.97913676222443 16.860482310636034, 84.76430476407678 16.990714730406093 M85.8332430736057 16.34271804539089 C85.47469124890843 16.560074268606783, 85.11613942421114 16.777430491822678, 84.76430476407678 16.990714730406093 M84.76430476407678 16.990714730406093 C84.39857424797174 17.18151610639652, 84.0328437318667 17.37231748238694, 83.65604541279238 17.56889292409717 M84.76430476407678 16.990714730406093 C84.36428911090317 17.199402640444507, 83.96427345772958 17.408090550482925, 83.65604541279238 17.56889292409717 M83.65604541279238 17.56889292409717 C83.2177663125597 17.762906080682598, 82.77948721232703 17.95691923726802, 82.5130190951478 18.07487676824742 M83.65604541279238 17.56889292409717 C83.37492477799978 17.693336689972515, 83.09380414320718 17.817780455847856, 82.5130190951478 18.07487676824742 M82.5130190951478 18.07487676824742 C82.24480654797188 18.173581464937765, 81.97659400079596 18.272286161628113, 81.33992275146062 18.506587066708033 M82.5130190951478 18.07487676824742 C82.25668935850128 18.16920848081945, 82.00035962185477 18.263540193391478, 81.33992275146062 18.506587066708033 M81.33992275146062 18.506587066708033 C81.03297792117488 18.59768668115055, 80.72603309088913 18.688786295593065, 80.14157688623541 18.86224982926107 M81.33992275146062 18.506587066708033 C80.8847241753652 18.64168761470707, 80.4295255992698 18.776788162706104, 80.14157688623541 18.86224982926107 M80.14157688623541 18.86224982926107 C79.77766738055813 18.945309799200455, 79.41375787488084 19.02836976913984, 78.92290575967677 19.140403561325773 M80.14157688623541 18.86224982926107 C79.7349909457207 18.955050416962337, 79.32840500520598 19.0478510046636, 78.92290575967677 19.140403561325773 M78.92290575967677 19.140403561325773 C78.53716801089453 19.202766649107964, 78.1514302621123 19.265129736890156, 77.68891715284788 19.3399052695533 M78.92290575967677 19.140403561325773 C78.46746728747523 19.214035321533213, 78.01202881527371 19.287667081740658, 77.68891715284788 19.3399052695533 M77.68891715284788 19.3399052695533 C77.25796885888803 19.381478333180453, 76.82702056492819 19.423051396807605, 76.4446817896239 19.45993515863156 M77.68891715284788 19.3399052695533 C77.43235842207476 19.364655181753964, 77.17579969130163 19.389405093954633, 76.4446817896239 19.45993515863156 M76.4446817896239 19.45993515863156 C75.959938406746 19.475479935424698, 75.47519502386812 19.491024712217833, 75.1953125 19.5 M76.4446817896239 19.45993515863156 C76.15606409456876 19.469190566351713, 75.86744639951363 19.478445974071867, 75.1953125 19.5 M75.1953125 19.5 C75.1953125 19.5, 75.1953125 19.5, 75.1953125 19.5 M75.1953125 19.5 C75.1953125 19.5, 75.1953125 19.5, 75.1953125 19.5 M75.1953125 19.5 C19.553100478684094 19.5, -36.08911154263181 19.5, -75.1953125 19.5 M75.1953125 19.5 C16.15141837534373 19.5, -42.89247574931254 19.5, -75.1953125 19.5 M-75.1953125 19.5 C-75.56407791720284 19.488174410828645, -75.93284333440567 19.476348821657293, -76.4446817896239 19.45993515863156 M-75.1953125 19.5 C-75.52162609535335 19.4895357581279, -75.8479396907067 19.4790715162558, -76.4446817896239 19.45993515863156 M-76.4446817896239 19.45993515863156 C-76.76015948503671 19.429501404772523, -77.07563718044953 19.399067650913487, -77.68891715284786 19.3399052695533 M-76.4446817896239 19.45993515863156 C-76.93046839746381 19.413071908817116, -77.41625500530371 19.366208659002673, -77.68891715284786 19.3399052695533 M-77.68891715284786 19.3399052695533 C-78.12265972324089 19.269781134496025, -78.55640229363392 19.19965699943875, -78.92290575967675 19.140403561325773 M-77.68891715284786 19.3399052695533 C-77.99964966443935 19.289668446845806, -78.31038217603084 19.23943162413831, -78.92290575967675 19.140403561325773 M-78.92290575967675 19.140403561325773 C-79.24500159179887 19.066887289515634, -79.56709742392098 18.9933710177055, -80.14157688623538 18.862249829261074 M-78.92290575967675 19.140403561325773 C-79.38452314316916 19.035042405878578, -79.84614052666157 18.92968125043138, -80.14157688623538 18.862249829261074 M-80.14157688623538 18.862249829261074 C-80.48517529725116 18.760271624456458, -80.82877370826694 18.658293419651837, -81.33992275146059 18.506587066708043 M-80.14157688623538 18.862249829261074 C-80.49788631535499 18.75649906100474, -80.85419574447458 18.6507482927484, -81.33992275146059 18.506587066708043 M-81.33992275146059 18.506587066708043 C-81.60253475612147 18.409943421434082, -81.86514676078234 18.31329977616012, -82.5130190951478 18.074876768247425 M-81.33992275146059 18.506587066708043 C-81.80107171292859 18.33687998607355, -82.26222067439659 18.167172905439056, -82.5130190951478 18.074876768247425 M-82.5130190951478 18.074876768247425 C-82.9045989176663 17.901535996621206, -83.29617874018481 17.728195224994984, -83.65604541279238 17.568892924097174 M-82.5130190951478 18.074876768247425 C-82.92089422914873 17.89432254561118, -83.32876936314965 17.713768322974936, -83.65604541279238 17.568892924097174 M-83.65604541279238 17.568892924097174 C-83.92131098676941 17.430504044064065, -84.18657656074645 17.292115164030953, -84.76430476407678 16.990714730406097 M-83.65604541279238 17.568892924097174 C-83.94170586269371 17.4198640503579, -84.22736631259505 17.270835176618625, -84.76430476407678 16.990714730406097 M-84.76430476407678 16.990714730406097 C-85.01596644791974 16.83815593873229, -85.26762813176268 16.685597147058477, -85.83324307360569 16.3427180453909 M-84.76430476407678 16.990714730406097 C-85.11088634006789 16.780614942300865, -85.45746791605902 16.570515154195636, -85.83324307360569 16.3427180453909 M-85.83324307360569 16.3427180453909 C-86.16000475073922 16.114783244707574, -86.48676642787274 15.886848444024247, -86.85846784457871 15.627565626425156 M-85.83324307360569 16.3427180453909 C-86.23860298280478 16.05995652048126, -86.64396289200387 15.777194995571627, -86.85846784457871 15.627565626425156 M-86.85846784457871 15.627565626425156 C-87.09048798120227 15.442535741783, -87.32250811782585 15.257505857140846, -87.83576620850187 14.848196188198125 M-86.85846784457871 15.627565626425156 C-87.11566501811878 15.42245772483119, -87.37286219165883 15.217349823237223, -87.83576620850187 14.848196188198125 M-87.83576620850187 14.848196188198125 C-88.20347264992907 14.514254927073244, -88.57117909135629 14.180313665948363, -88.76112223676797 14.007812326905697 M-87.83576620850187 14.848196188198125 C-88.14773080033609 14.564878200025067, -88.45969539217032 14.281560211852009, -88.76112223676797 14.007812326905697 M-88.76112223676797 14.007812326905697 C-89.03360045960592 13.726456190947383, -89.30607868244385 13.44510005498907, -89.63073344296865 13.109867360095677 M-88.76112223676797 14.007812326905697 C-89.00567372347915 13.755292838825948, -89.25022521019032 13.502773350746201, -89.63073344296865 13.109867360095677 M-89.63073344296865 13.109867360095677 C-89.90734648007437 12.784941946983595, -90.1839595171801 12.460016533871515, -90.44102640812658 12.158051136245307 M-89.63073344296865 13.109867360095677 C-89.95381888019999 12.730352821441574, -90.27690431743132 12.350838282787471, -90.44102640812658 12.158051136245307 M-90.44102640812658 12.158051136245307 C-90.6825775265121 11.83439464336828, -90.92412864489765 11.51073815049125, -91.18867146464063 11.156274872382316 M-90.44102640812658 12.158051136245307 C-90.6403530774331 11.8909715584077, -90.83967974673963 11.623891980570091, -91.18867146464063 11.156274872382316 M-91.18867146464063 11.156274872382316 C-91.41720767539442 10.805181882099216, -91.64574388614822 10.454088891816118, -91.87059637860425 10.108655082055249 M-91.18867146464063 11.156274872382316 C-91.44548002450223 10.76174796168088, -91.70228858436384 10.367221050979445, -91.87059637860425 10.108655082055249 M-91.87059637860425 10.108655082055249 C-92.10871100891107 9.685858444224571, -92.34682563921791 9.263061806393893, -92.4839989742735 9.019496659696289 M-91.87059637860425 10.108655082055249 C-92.04350913639854 9.801630971276102, -92.21642189419285 9.494606860496956, -92.4839989742735 9.019496659696289 M-92.4839989742735 9.019496659696289 C-92.63271905860218 8.71067622248777, -92.78143914293084 8.40185578527925, -93.02635864880834 7.893275190886686 M-92.4839989742735 9.019496659696289 C-92.66455542108496 8.64456733460322, -92.84511186789642 8.269638009510153, -93.02635864880834 7.893275190886686 M-93.02635864880834 7.893275190886686 C-93.14959566795794 7.588877370961508, -93.27283268710754 7.28447955103633, -93.49544672997033 6.73461856121551 M-93.02635864880834 7.893275190886686 C-93.21107582166553 7.43702020266583, -93.39579299452274 6.9807652144449746, -93.49544672997033 6.73461856121551 M-93.49544672997033 6.73461856121551 C-93.65107577931231 6.265888660719091, -93.80670482865429 5.797158760222672, -93.88933563421489 5.5482879393051325 M-93.49544672997033 6.73461856121551 C-93.6208345248686 6.356970500813993, -93.74622231976687 5.979322440412477, -93.88933563421489 5.5482879393051325 M-93.88933563421489 5.5482879393051325 C-93.96872285149792 5.245550073167345, -94.04811006878093 4.942812207029558, -94.20640678754556 4.339158212148136 M-93.88933563421489 5.5482879393051325 C-93.98590646456803 5.180021509105979, -94.08247729492116 4.811755078906824, -94.20640678754556 4.339158212148136 M-94.20640678754556 4.339158212148136 C-94.29344562247975 3.892232190425369, -94.38048445741393 3.4453061687026025, -94.44535727658177 3.112197953150904 M-94.20640678754556 4.339158212148136 C-94.26652632344435 4.0304571015762285, -94.32664585934315 3.7217559910043216, -94.44535727658177 3.112197953150904 M-94.44535727658177 3.112197953150904 C-94.49386247251765 2.7360012319065614, -94.54236766845354 2.3598045106622187, -94.60520520250937 1.872449005199809 M-94.44535727658177 3.112197953150904 C-94.50630640146287 2.6394885763392693, -94.56725552634394 2.1667791995276344, -94.60520520250937 1.872449005199809 M-94.60520520250937 1.872449005199809 C-94.62591187968928 1.549925793993613, -94.6466185568692 1.227402582787417, -94.68529371591342 0.6250057626472781 M-94.60520520250937 1.872449005199809 C-94.6356451003883 1.3983230250921466, -94.66608499826722 0.924197044984484, -94.68529371591342 0.6250057626472781 M-94.68529371591342 0.6250057626472781 C-94.68529371591342 0.27938300573254843, -94.68529371591342 -0.06623975118218128, -94.68529371591342 -0.6250057626472687 M-94.68529371591342 0.6250057626472781 C-94.68529371591342 0.35759235887902435, -94.68529371591342 0.09017895511077056, -94.68529371591342 -0.6250057626472687 M-94.68529371591342 -0.6250057626472687 C-94.65692816249246 -1.06682215344124, -94.62856260907151 -1.5086385442352115, -94.60520520250937 -1.8724490051997822 M-94.68529371591342 -0.6250057626472687 C-94.66233703111185 -0.9825746587341695, -94.63938034631028 -1.3401435548210703, -94.60520520250937 -1.8724490051997822 M-94.60520520250937 -1.8724490051997822 C-94.5611471462813 -2.214154589057436, -94.51708909005322 -2.5558601729150894, -94.44535727658177 -3.112197953150895 M-94.60520520250937 -1.8724490051997822 C-94.55307328602693 -2.2767738548262946, -94.50094136954448 -2.681098704452807, -94.44535727658177 -3.112197953150895 M-94.44535727658177 -3.112197953150895 C-94.39260190022242 -3.3830856609034496, -94.33984652386306 -3.6539733686560045, -94.20640678754556 -4.339158212148126 M-94.44535727658177 -3.112197953150895 C-94.39609639043591 -3.3651421922178772, -94.34683550429007 -3.6180864312848593, -94.20640678754556 -4.339158212148126 M-94.20640678754556 -4.339158212148126 C-94.13439441837974 -4.613772586135638, -94.06238204921391 -4.8883869601231495, -93.88933563421489 -5.548287939305123 M-94.20640678754556 -4.339158212148126 C-94.13573409399282 -4.608663822403853, -94.06506140044009 -4.878169432659581, -93.88933563421489 -5.548287939305123 M-93.88933563421489 -5.548287939305123 C-93.7407243063358 -5.99588158087734, -93.59211297845673 -6.443475222449557, -93.49544672997033 -6.734618561215485 M-93.88933563421489 -5.548287939305123 C-93.7430942290378 -5.9887437512948445, -93.59685282386071 -6.429199563284565, -93.49544672997033 -6.734618561215485 M-93.49544672997033 -6.734618561215485 C-93.37933672901038 -7.0214125084207275, -93.26322672805041 -7.308206455625969, -93.02635864880834 -7.893275190886676 M-93.49544672997033 -6.734618561215485 C-93.34409103775941 -7.108470047239665, -93.19273534554851 -7.482321533263845, -93.02635864880834 -7.893275190886676 M-93.02635864880834 -7.893275190886676 C-92.88812126415243 -8.180328077930882, -92.74988387949651 -8.467380964975087, -92.4839989742735 -9.019496659696282 M-93.02635864880834 -7.893275190886676 C-92.81852952532846 -8.324836812623543, -92.61070040184856 -8.75639843436041, -92.4839989742735 -9.019496659696282 M-92.4839989742735 -9.019496659696282 C-92.24964364158453 -9.435618283936314, -92.01528830889553 -9.851739908176347, -91.87059637860425 -10.108655082055243 M-92.4839989742735 -9.019496659696282 C-92.26787348963262 -9.403249342754622, -92.05174800499174 -9.787002025812962, -91.87059637860425 -10.108655082055243 M-91.87059637860425 -10.108655082055243 C-91.65526806537892 -10.439457194917523, -91.4399397521536 -10.770259307779805, -91.18867146464063 -11.156274872382308 M-91.87059637860425 -10.108655082055243 C-91.69426435672938 -10.379548419432782, -91.51793233485452 -10.650441756810322, -91.18867146464063 -11.156274872382308 M-91.18867146464063 -11.156274872382308 C-90.97900430095525 -11.437209770649172, -90.76933713726986 -11.718144668916036, -90.44102640812659 -12.158051136245302 M-91.18867146464063 -11.156274872382308 C-90.97042276574699 -11.448708246034304, -90.75217406685334 -11.7411416196863, -90.44102640812659 -12.158051136245302 M-90.44102640812659 -12.158051136245302 C-90.2319394880611 -12.403656529937006, -90.02285256799563 -12.64926192362871, -89.63073344296866 -13.10986736009567 M-90.44102640812659 -12.158051136245302 C-90.17554831631396 -12.469896809019765, -89.91007022450135 -12.78174248179423, -89.63073344296866 -13.10986736009567 M-89.63073344296866 -13.10986736009567 C-89.38199286039304 -13.36671243358663, -89.1332522778174 -13.623557507077589, -88.76112223676799 -14.007812326905677 M-89.63073344296866 -13.10986736009567 C-89.36378562258574 -13.385512901464688, -89.09683780220281 -13.661158442833704, -88.76112223676799 -14.007812326905677 M-88.76112223676799 -14.007812326905677 C-88.55196770126798 -14.19776094212103, -88.34281316576796 -14.387709557336382, -87.8357662085019 -14.848196188198107 M-88.76112223676799 -14.007812326905677 C-88.42057039370822 -14.317092500264565, -88.08001855064843 -14.626372673623454, -87.8357662085019 -14.848196188198107 M-87.8357662085019 -14.848196188198107 C-87.62949244626758 -15.01269402440463, -87.42321868403326 -15.17719186061115, -86.85846784457871 -15.627565626425149 M-87.8357662085019 -14.848196188198107 C-87.63715782146086 -15.006581091672189, -87.43854943441983 -15.16496599514627, -86.85846784457871 -15.627565626425149 M-86.85846784457871 -15.627565626425149 C-86.62755073044086 -15.788643409006955, -86.396633616303 -15.949721191588763, -85.83324307360571 -16.342718045390885 M-86.85846784457871 -15.627565626425149 C-86.6443729418114 -15.776908962576659, -86.4302780390441 -15.926252298728167, -85.83324307360571 -16.342718045390885 M-85.83324307360571 -16.342718045390885 C-85.4124425762588 -16.597809779780793, -84.9916420789119 -16.852901514170696, -84.76430476407678 -16.99071473040609 M-85.83324307360571 -16.342718045390885 C-85.41560419064615 -16.59589319055947, -84.9979653076866 -16.849068335728052, -84.76430476407678 -16.99071473040609 M-84.76430476407678 -16.99071473040609 C-84.49090423723037 -17.133347610140476, -84.21750371038394 -17.27598048987486, -83.6560454127924 -17.56889292409717 M-84.76430476407678 -16.99071473040609 C-84.51284657364809 -17.121900307286083, -84.2613883832194 -17.253085884166072, -83.6560454127924 -17.56889292409717 M-83.6560454127924 -17.56889292409717 C-83.31380704686704 -17.720391696551907, -82.97156868094167 -17.871890469006647, -82.51301909514781 -18.07487676824742 M-83.6560454127924 -17.56889292409717 C-83.2509019860809 -17.7482379009496, -82.84575855936941 -17.92758287780203, -82.51301909514781 -18.07487676824742 M-82.51301909514781 -18.07487676824742 C-82.1020403022643 -18.226120763074867, -81.69106150938079 -18.377364757902313, -81.33992275146062 -18.506587066708033 M-82.51301909514781 -18.07487676824742 C-82.0850662048285 -18.23236738783808, -81.65711331450917 -18.389858007428742, -81.33992275146062 -18.506587066708033 M-81.33992275146062 -18.506587066708033 C-80.90312052183654 -18.636227675638768, -80.46631829221246 -18.765868284569503, -80.14157688623541 -18.862249829261067 M-81.33992275146062 -18.506587066708033 C-80.99849511423484 -18.607920997246403, -80.65706747700906 -18.709254927784773, -80.14157688623541 -18.862249829261067 M-80.14157688623541 -18.862249829261067 C-79.89027652568907 -18.919607496667663, -79.63897616514274 -18.976965164074254, -78.92290575967677 -19.140403561325773 M-80.14157688623541 -18.862249829261067 C-79.67484726352 -18.96877781995044, -79.20811764080457 -19.07530581063981, -78.92290575967677 -19.140403561325773 M-78.92290575967677 -19.140403561325773 C-78.6290295557876 -19.187915186926574, -78.33515335189841 -19.23542681252738, -77.68891715284788 -19.3399052695533 M-78.92290575967677 -19.140403561325773 C-78.6168118545917 -19.18989045010624, -78.31071794950665 -19.239377338886705, -77.68891715284788 -19.3399052695533 M-77.68891715284788 -19.3399052695533 C-77.424812267082 -19.365383150250537, -77.16070738131614 -19.39086103094777, -76.4446817896239 -19.45993515863156 M-77.68891715284788 -19.3399052695533 C-77.41004435610273 -19.366807792861696, -77.13117155935758 -19.393710316170093, -76.4446817896239 -19.45993515863156 M-76.4446817896239 -19.45993515863156 C-76.16501383692045 -19.468903565534113, -75.885345884217 -19.477871972436663, -75.1953125 -19.5 M-76.4446817896239 -19.45993515863156 C-75.9479395612511 -19.475864715045383, -75.4511973328783 -19.491794271459206, -75.1953125 -19.5 M-75.1953125 -19.5 C-75.1953125 -19.5, -75.1953125 -19.5, -75.1953125 -19.5 M-75.1953125 -19.5 C-75.1953125 -19.5, -75.1953125 -19.5, -75.1953125 -19.5" stroke="#ccc" stroke-width="1.3" fill="none" stroke-dasharray="0 0" style=""/></g><g class="label" style="" transform="translate(-82.3203125, -12)"><rect/><foreignObject width="164.640625" height="24"><div xmlns="http://www.w3.org/1999/xhtml" style="display: table-cell; white-space: nowrap; line-height: 1.5; max-width: 200px; text-align: center;"><span class="nodeLabel"><p>drift · unsorted · todos</p></span></div></foreignObject></g></g><g class="node default" id="my-svg-flowchart-reflect-3" data-look="classic" transform="translate(446.09715270996094, 35)"><rect class="basic label-container" style="" x="-54.2890625" y="-27" width="108.578125" height="54"/><g class="label" style="" transform="translate(-24.2890625, -12)"><rect/><foreignObject width="48.578125" height="24"><div xmlns="http://www.w3.org/1999/xhtml" style="display: table-cell; white-space: nowrap; line-height: 1.5; max-width: 200px; text-align: center;"><span class="nodeLabel"><p>reflect</p></span></div></foreignObject></g></g><g class="node default" id="my-svg-flowchart-knowledgeConsolidation-5" data-look="classic" transform="translate(647.3293228149414, 35)"><g class="basic label-container outer-path"><path d="M-77.453125 -19.5 C-33.225604051075635 -19.5, 11.00191689784873 -19.5, 77.453125 -19.5 C77.453125 -19.5, 77.453125 -19.5, 77.453125 -19.5 C77.86903129910701 -19.48666269450014, 78.28493759821401 -19.47332538900028, 78.7024942896239 -19.45993515863156 C79.17677690347813 -19.41418168528134, 79.65105951733237 -19.368428211931118, 79.94672965284786 -19.3399052695533 C80.29888723518437 -19.282971162663973, 80.65104481752088 -19.226037055774643, 81.18071825967675 -19.140403561325776 C81.55253078394354 -19.05553977896535, 81.92434330821034 -18.970675996604925, 82.39938938623538 -18.862249829261074 C82.77783882128072 -18.74992802346124, 83.15628825632605 -18.63760621766141, 83.5977352514606 -18.50658706670804 C84.05595067335558 -18.33795955575376, 84.51416609525057 -18.16933204479948, 84.7708315951478 -18.074876768247425 C85.12489538404371 -17.918143231832328, 85.47895917293964 -17.761409695417232, 85.91385791279238 -17.568892924097174 C86.27463273542944 -17.380676930214726, 86.63540755806649 -17.192460936332278, 87.02211726407678 -16.990714730406097 C87.2827560908372 -16.83271394194017, 87.54339491759762 -16.674713153474247, 88.0910555736057 -16.342718045390892 C88.32002412235366 -16.182999497673038, 88.54899267110162 -16.023280949955186, 89.11628034457871 -15.627565626425154 C89.44695533581289 -15.363861120546975, 89.77763032704706 -15.100156614668796, 90.09357870850187 -14.848196188198123 C90.38846093597925 -14.580391951359351, 90.68334316345666 -14.312587714520578, 91.01893473676799 -14.007812326905688 C91.25617042248004 -13.762847003995962, 91.4934061081921 -13.517881681086235, 91.88854594296865 -13.10986736009568 C92.19645065775222 -12.7481849618363, 92.50435537253578 -12.386502563576919, 92.69883890812658 -12.158051136245305 C92.89674429585774 -11.89287594623726, 93.09464968358893 -11.627700756229213, 93.44648396464063 -11.156274872382312 C93.6966151085414 -10.772006265733976, 93.94674625244215 -10.38773765908564, 94.12840887860425 -10.108655082055241 C94.32400935122708 -9.7613466362178, 94.5196098238499 -9.414038190380356, 94.7418114742735 -9.019496659696287 C94.94566753306663 -8.596185191791447, 95.14952359185976 -8.172873723886605, 95.28417114880834 -7.893275190886684 C95.37883995744666 -7.659441403253153, 95.47350876608496 -7.425607615619621, 95.75325922997033 -6.734618561215508 C95.88061164606589 -6.351053374787631, 96.00796406216145 -5.967488188359754, 96.14714813421489 -5.548287939305138 C96.25803936418782 -5.12541161885523, 96.36893059416076 -4.702535298405323, 96.46421928754556 -4.339158212148133 C96.53292243035348 -3.986382094243829, 96.6016255731614 -3.633605976339525, 96.70316977658177 -3.1121979531509023 C96.76209753090507 -2.6551659272207466, 96.82102528522836 -2.198133901290591, 96.86301770250937 -1.872449005199798 C96.88488590575838 -1.5318340879005201, 96.90675410900738 -1.1912191706012423, 96.94310621591342 -0.6250057626472757 C96.94310621591342 -0.3424253054384723, 96.94310621591342 -0.05984484822966896, 96.94310621591342 0.625005762647271 C96.91841548359763 1.0095838484661508, 96.89372475128184 1.3941619342850307, 96.86301770250937 1.8724490051997846 C96.82532296956954 2.1648019102141416, 96.78762823662971 2.4571548152284985, 96.70316977658177 3.1121979531508885 C96.63596141929555 3.457298663324286, 96.56875306200934 3.802399373497683, 96.46421928754556 4.339158212148129 C96.3464105649712 4.788413929947553, 96.22860184239681 5.237669647746978, 96.14714813421489 5.548287939305125 C96.01062345777254 5.959478512496305, 95.87409878133019 6.370669085687483, 95.75325922997033 6.734618561215495 C95.61431914254322 7.0778032633842765, 95.47537905511614 7.420987965553059, 95.28417114880834 7.893275190886679 C95.14950179016459 8.17291899557311, 95.01483243152083 8.45256280025954, 94.7418114742735 9.019496659696284 C94.51973399408014 9.413817713562956, 94.29765651388678 9.808138767429627, 94.12840887860425 10.108655082055236 C93.97330540500218 10.34693566862238, 93.81820193140011 10.585216255189525, 93.44648396464065 11.156274872382301 C93.17350110008103 11.522047041641635, 92.90051823552139 11.88781921090097, 92.69883890812659 12.158051136245302 C92.4934559538933 12.399305640908876, 92.28807299966003 12.64056014557245, 91.88854594296866 13.10986736009567 C91.67476853761961 13.330610082569947, 91.46099113227058 13.551352805044225, 91.01893473676799 14.007812326905684 C90.82837824076375 14.180870694728135, 90.63782174475952 14.353929062550586, 90.0935787085019 14.848196188198111 C89.71714475251683 15.148392250767927, 89.34071079653177 15.448588313337742, 89.11628034457871 15.627565626425152 C88.74478461870251 15.886704963005608, 88.37328889282631 16.145844299586063, 88.0910555736057 16.34271804539089 C87.6985464669434 16.580659372489123, 87.30603736028108 16.818600699587357, 87.02211726407678 16.990714730406093 C86.7744575395405 17.119918650063045, 86.52679781500423 17.249122569719997, 85.91385791279238 17.56889292409717 C85.4877605182562 17.75751360092822, 85.06166312372001 17.94613427775927, 84.7708315951478 18.07487676824742 C84.50252246599261 18.17361700799893, 84.23421333683741 18.272357247750445, 83.59773525146062 18.506587066708033 C83.24878759645094 18.61015289905129, 82.89983994144126 18.713718731394547, 82.39938938623541 18.86224982926107 C82.1435222158999 18.92064984120082, 81.88765504556441 18.979049853140573, 81.18071825967677 19.140403561325773 C80.92498574029797 19.18174841182363, 80.66925322091917 19.223093262321484, 79.94672965284788 19.3399052695533 C79.50343649624604 19.382669227232658, 79.06014333964421 19.425433184912013, 78.7024942896239 19.45993515863156 C78.43420481551583 19.468538679872424, 78.16591534140777 19.47714220111329, 77.453125 19.5 C77.453125 19.5, 77.453125 19.5, 77.453125 19.5 C24.578353453441586 19.5, -28.296418093116827 19.5, -77.453125 19.5 C-77.80749650917826 19.48863599544295, -78.16186801835653 19.477271990885903, -78.7024942896239 19.45993515863156 C-78.97935928354993 19.433226325646388, -79.25622427747595 19.406517492661216, -79.94672965284786 19.3399052695533 C-80.25712589800753 19.289722811794718, -80.56752214316718 19.239540354036134, -81.18071825967675 19.140403561325773 C-81.51719940932595 19.063603934663046, -81.85368055897517 18.98680430800032, -82.39938938623538 18.862249829261074 C-82.68124755279631 18.778595804929502, -82.96310571935722 18.69494178059793, -83.59773525146059 18.506587066708043 C-83.89034830150928 18.39890275940474, -84.18296135155796 18.291218452101443, -84.7708315951478 18.074876768247425 C-85.11775720152033 17.92130309348877, -85.46468280789287 17.767729418730116, -85.91385791279238 17.568892924097174 C-86.18115824726151 17.429442510818664, -86.44845858173065 17.289992097540154, -87.02211726407678 16.990714730406097 C-87.24768288016752 16.853975528361193, -87.47324849625826 16.71723632631629, -88.09105557360569 16.3427180453909 C-88.32286197620049 16.181019933678208, -88.55466837879528 16.019321821965512, -89.11628034457871 15.627565626425156 C-89.47898505983615 15.33831826798518, -89.84168977509358 15.049070909545204, -90.09357870850187 14.848196188198125 C-90.36663233062951 14.600216113184747, -90.63968595275715 14.352236038171366, -91.01893473676797 14.007812326905697 C-91.20779526123232 13.812798329658838, -91.39665578569665 13.61778433241198, -91.88854594296865 13.109867360095677 C-92.05072852155341 12.919358474839864, -92.21291110013817 12.728849589584051, -92.69883890812658 12.158051136245307 C-92.98285345360614 11.777497519560074, -93.2668679990857 11.396943902874838, -93.44648396464063 11.156274872382316 C-93.61455927902563 10.898066054945625, -93.78263459341062 10.639857237508934, -94.12840887860425 10.108655082055249 C-94.29115656601431 9.819680083068304, -94.45390425342437 9.53070508408136, -94.7418114742735 9.019496659696289 C-94.9438839114942 8.599888920149988, -95.1459563487149 8.180281180603687, -95.28417114880834 7.893275190886686 C-95.43572851093566 7.518925576269935, -95.587285873063 7.144575961653183, -95.75325922997033 6.73461856121551 C-95.89021148521616 6.322140188793689, -96.02716374046199 5.9096618163718695, -96.14714813421489 5.5482879393051325 C-96.25413510185786 5.1403002632373775, -96.36112206950084 4.732312587169623, -96.46421928754556 4.339158212148136 C-96.53629822029787 3.9690481263528756, -96.60837715305017 3.5989380405576155, -96.70316977658177 3.112197953150904 C-96.7362304013204 2.8557862762369433, -96.76929102605902 2.599374599322982, -96.86301770250937 1.872449005199809 C-96.89246894279889 1.4137221650772864, -96.9219201830884 0.9549953249547636, -96.94310621591342 0.6250057626472781 C-96.94310621591342 0.14252952672089614, -96.94310621591342 -0.33994670920548586, -96.94310621591342 -0.6250057626472687 C-96.9260447105003 -0.8907524812557942, -96.9089832050872 -1.1564991998643197, -96.86301770250937 -1.8724490051997822 C-96.82820732235292 -2.1424314396060553, -96.79339694219648 -2.4124138740123287, -96.70316977658177 -3.112197953150895 C-96.61252900818687 -3.577619141925566, -96.52188823979196 -4.0430403307002365, -96.46421928754556 -4.339158212148126 C-96.37286972717777 -4.687513676980405, -96.28152016680998 -5.035869141812685, -96.14714813421489 -5.548287939305123 C-96.05813818781654 -5.8163717160479145, -95.96912824141819 -6.084455492790706, -95.75325922997033 -6.734618561215485 C-95.57658867983127 -7.170998235751665, -95.39991812969222 -7.607377910287846, -95.28417114880834 -7.893275190886676 C-95.1018018796037 -8.271968880467371, -94.91943261039907 -8.650662570048064, -94.7418114742735 -9.019496659696282 C-94.52301018257212 -9.408000509145383, -94.30420889087074 -9.796504358594484, -94.12840887860425 -10.108655082055243 C-93.89667419177435 -10.464661790502332, -93.66493950494444 -10.82066849894942, -93.44648396464063 -11.156274872382308 C-93.22920574012306 -11.447407898782387, -93.0119275156055 -11.738540925182466, -92.69883890812659 -12.158051136245302 C-92.48315725137027 -12.411403082905217, -92.26747559461394 -12.66475502956513, -91.88854594296866 -13.10986736009567 C-91.58852848470282 -13.419660017646557, -91.28851102643699 -13.729452675197443, -91.01893473676799 -14.007812326905677 C-90.82848385895244 -14.180774775083664, -90.63803298113689 -14.353737223261652, -90.0935787085019 -14.848196188198107 C-89.86381821829025 -15.031424064958472, -89.63405772807859 -15.214651941718838, -89.11628034457871 -15.627565626425149 C-88.7328635541419 -15.895020581588527, -88.34944676370507 -16.162475536751906, -88.09105557360571 -16.342718045390885 C-87.77818715976348 -16.53238071648093, -87.46531874592125 -16.72204338757097, -87.02211726407678 -16.99071473040609 C-86.74282265997871 -17.136422546467326, -86.46352805588063 -17.282130362528562, -85.9138579127924 -17.56889292409717 C-85.63700353635062 -17.69144814395466, -85.36014915990886 -17.814003363812148, -84.77083159514781 -18.07487676824742 C-84.4298367161483 -18.20036603584135, -84.08884183714878 -18.32585530343528, -83.59773525146062 -18.506587066708033 C-83.27080410577739 -18.60361851465021, -82.94387296009417 -18.70064996259239, -82.39938938623541 -18.862249829261067 C-82.02972867056936 -18.94662247535024, -81.6600679549033 -19.03099512143941, -81.18071825967677 -19.140403561325773 C-80.90894001570794 -19.184342560138894, -80.6371617717391 -19.228281558952016, -79.94672965284788 -19.3399052695533 C-79.64240965485723 -19.369262653761112, -79.3380896568666 -19.39862003796892, -78.7024942896239 -19.45993515863156 C-78.3038275528884 -19.472719624920938, -77.90516081615287 -19.485504091210316, -77.453125 -19.5 C-77.453125 -19.5, -77.453125 -19.5, -77.453125 -19.5" stroke="none" stroke-width="0" fill="#1f2020" style=""/><path d="M-77.453125 -19.5 C-43.82205721037492 -19.5, -10.190989420749844 -19.5, 77.453125 -19.5 M-77.453125 -19.5 C-45.574889368324946 -19.5, -13.696653736649893 -19.5, 77.453125 -19.5 M77.453125 -19.5 C77.453125 -19.5, 77.453125 -19.5, 77.453125 -19.5 M77.453125 -19.5 C77.453125 -19.5, 77.453125 -19.5, 77.453125 -19.5 M77.453125 -19.5 C77.76865040077678 -19.489881714530025, 78.08417580155356 -19.47976342906005, 78.7024942896239 -19.45993515863156 M77.453125 -19.5 C77.80205145454275 -19.488810607746956, 78.1509779090855 -19.477621215493915, 78.7024942896239 -19.45993515863156 M78.7024942896239 -19.45993515863156 C79.09858803184405 -19.421724471692002, 79.49468177406419 -19.383513784752445, 79.94672965284786 -19.3399052695533 M78.7024942896239 -19.45993515863156 C79.12975856950457 -19.418717487411946, 79.55702284938525 -19.377499816192334, 79.94672965284786 -19.3399052695533 M79.94672965284786 -19.3399052695533 C80.33943925936373 -19.276415025880297, 80.73214886587961 -19.212924782207295, 81.18071825967675 -19.140403561325776 M79.94672965284786 -19.3399052695533 C80.30640279600897 -19.281756105073896, 80.66607593917006 -19.223606940594493, 81.18071825967675 -19.140403561325776 M81.18071825967675 -19.140403561325776 C81.64117140971697 -19.03530813456671, 82.10162455975718 -18.930212707807637, 82.39938938623538 -18.862249829261074 M81.18071825967675 -19.140403561325776 C81.58033633660824 -19.049193343017823, 81.97995441353974 -18.957983124709866, 82.39938938623538 -18.862249829261074 M82.39938938623538 -18.862249829261074 C82.77977815956932 -18.749352438036983, 83.16016693290324 -18.63645504681289, 83.5977352514606 -18.50658706670804 M82.39938938623538 -18.862249829261074 C82.79744974391936 -18.74410760456193, 83.19551010160333 -18.625965379862784, 83.5977352514606 -18.50658706670804 M83.5977352514606 -18.50658706670804 C83.99078467065519 -18.36194124713543, 84.38383408984977 -18.217295427562824, 84.7708315951478 -18.074876768247425 M83.5977352514606 -18.50658706670804 C83.97871357599169 -18.366383521555573, 84.35969190052278 -18.226179976403106, 84.7708315951478 -18.074876768247425 M84.7708315951478 -18.074876768247425 C85.16496959484913 -17.900403567468, 85.55910759455045 -17.725930366688576, 85.91385791279238 -17.568892924097174 M84.7708315951478 -18.074876768247425 C85.13732399524389 -17.912641454335667, 85.50381639533998 -17.750406140423905, 85.91385791279238 -17.568892924097174 M85.91385791279238 -17.568892924097174 C86.29610022561799 -17.369477354333945, 86.67834253844359 -17.170061784570713, 87.02211726407678 -16.990714730406097 M85.91385791279238 -17.568892924097174 C86.18115222307546 -17.429445653632673, 86.44844653335853 -17.289998383168168, 87.02211726407678 -16.990714730406097 M87.02211726407678 -16.990714730406097 C87.39951774687161 -16.761932339884456, 87.77691822966645 -16.533149949362812, 88.0910555736057 -16.342718045390892 M87.02211726407678 -16.990714730406097 C87.35721231667915 -16.78757814028143, 87.69230736928152 -16.58444155015676, 88.0910555736057 -16.342718045390892 M88.0910555736057 -16.342718045390892 C88.45338326605298 -16.089973932052676, 88.81571095850026 -15.83722981871446, 89.11628034457871 -15.627565626425154 M88.0910555736057 -16.342718045390892 C88.3675496470655 -16.14984774898086, 88.64404372052532 -15.956977452570827, 89.11628034457871 -15.627565626425154 M89.11628034457871 -15.627565626425154 C89.36535106794436 -15.428938352591361, 89.61442179131 -15.230311078757568, 90.09357870850187 -14.848196188198123 M89.11628034457871 -15.627565626425154 C89.34825027443266 -15.442575780345708, 89.58022020428662 -15.257585934266263, 90.09357870850187 -14.848196188198123 M90.09357870850187 -14.848196188198123 C90.45955654412029 -14.515824801132377, 90.82553437973871 -14.183453414066632, 91.01893473676799 -14.007812326905688 M90.09357870850187 -14.848196188198123 C90.412736935926 -14.558345130515479, 90.73189516335015 -14.268494072832835, 91.01893473676799 -14.007812326905688 M91.01893473676799 -14.007812326905688 C91.32269498939709 -13.694154926885586, 91.62645524202621 -13.380497526865483, 91.88854594296865 -13.10986736009568 M91.01893473676799 -14.007812326905688 C91.35717317224176 -13.658553372387017, 91.69541160771553 -13.309294417868346, 91.88854594296865 -13.10986736009568 M91.88854594296865 -13.10986736009568 C92.08156727060515 -12.883133525429159, 92.27458859824165 -12.656399690762639, 92.69883890812658 -12.158051136245305 M91.88854594296865 -13.10986736009568 C92.17426035271188 -12.774250956800808, 92.4599747624551 -12.438634553505937, 92.69883890812658 -12.158051136245305 M92.69883890812658 -12.158051136245305 C92.84837048821801 -11.957692441529977, 92.99790206830944 -11.757333746814648, 93.44648396464063 -11.156274872382312 M92.69883890812658 -12.158051136245305 C92.85740887377995 -11.94558182829084, 93.01597883943332 -11.733112520336373, 93.44648396464063 -11.156274872382312 M93.44648396464063 -11.156274872382312 C93.62354028834037 -10.884268812899508, 93.8005966120401 -10.612262753416703, 94.12840887860425 -10.108655082055241 M93.44648396464063 -11.156274872382312 C93.64396817505263 -10.852886093253812, 93.84145238546463 -10.549497314125313, 94.12840887860425 -10.108655082055241 M94.12840887860425 -10.108655082055241 C94.33759151986885 -9.737230120450619, 94.54677416113344 -9.365805158845996, 94.7418114742735 -9.019496659696287 M94.12840887860425 -10.108655082055241 C94.25136022936127 -9.89034250861185, 94.37431158011827 -9.67202993516846, 94.7418114742735 -9.019496659696287 M94.7418114742735 -9.019496659696287 C94.85153685612121 -8.791649556542458, 94.96126223796891 -8.563802453388629, 95.28417114880834 -7.893275190886684 M94.7418114742735 -9.019496659696287 C94.8751846857829 -8.742544332267448, 95.0085578972923 -8.465592004838609, 95.28417114880834 -7.893275190886684 M95.28417114880834 -7.893275190886684 C95.37888181458125 -7.659338015321461, 95.47359248035414 -7.4254008397562385, 95.75325922997033 -6.734618561215508 M95.28417114880834 -7.893275190886684 C95.46471366473236 -7.4473316860022925, 95.64525618065636 -7.001388181117901, 95.75325922997033 -6.734618561215508 M95.75325922997033 -6.734618561215508 C95.8849485768752 -6.337991230186079, 96.01663792378007 -5.941363899156649, 96.14714813421489 -5.548287939305138 M95.75325922997033 -6.734618561215508 C95.87613367457556 -6.3645403114486285, 95.9990081191808 -5.994462061681749, 96.14714813421489 -5.548287939305138 M96.14714813421489 -5.548287939305138 C96.24458890641093 -5.176704043823854, 96.34202967860695 -4.805120148342571, 96.46421928754556 -4.339158212148133 M96.14714813421489 -5.548287939305138 C96.22229977466245 -5.261702163351605, 96.29745141510999 -4.975116387398073, 96.46421928754556 -4.339158212148133 M96.46421928754556 -4.339158212148133 C96.53235089762973 -3.989316793986795, 96.6004825077139 -3.639475375825457, 96.70316977658177 -3.1121979531509023 M96.46421928754556 -4.339158212148133 C96.5388858119426 -3.955761390144794, 96.61355233633967 -3.572364568141455, 96.70316977658177 -3.1121979531509023 M96.70316977658177 -3.1121979531509023 C96.76459446088053 -2.6358002314056486, 96.82601914517929 -2.159402509660395, 96.86301770250937 -1.872449005199798 M96.70316977658177 -3.1121979531509023 C96.73798456016138 -2.84218136666415, 96.77279934374097 -2.572164780177398, 96.86301770250937 -1.872449005199798 M96.86301770250937 -1.872449005199798 C96.88041023955248 -1.6015462017501896, 96.89780277659558 -1.3306433983005812, 96.94310621591342 -0.6250057626472757 M96.86301770250937 -1.872449005199798 C96.88742046621499 -1.4923562629283789, 96.91182322992061 -1.1122635206569598, 96.94310621591342 -0.6250057626472757 M96.94310621591342 -0.6250057626472757 C96.94310621591342 -0.24234688688756523, 96.94310621591342 0.14031198887214524, 96.94310621591342 0.625005762647271 M96.94310621591342 -0.6250057626472757 C96.94310621591342 -0.17281674866248303, 96.94310621591342 0.27937226532230963, 96.94310621591342 0.625005762647271 M96.94310621591342 0.625005762647271 C96.91607341796428 1.0460634111867697, 96.88904062001515 1.4671210597262683, 96.86301770250937 1.8724490051997846 M96.94310621591342 0.625005762647271 C96.91549449361865 1.0550806251692875, 96.88788277132389 1.4851554876913038, 96.86301770250937 1.8724490051997846 M96.86301770250937 1.8724490051997846 C96.80898996730845 2.291477450435054, 96.75496223210753 2.710505895670324, 96.70316977658177 3.1121979531508885 M96.86301770250937 1.8724490051997846 C96.81492816082316 2.2454219941639275, 96.76683861913695 2.618394983128071, 96.70316977658177 3.1121979531508885 M96.70316977658177 3.1121979531508885 C96.6097622067846 3.59182608236257, 96.5163546369874 4.071454211574252, 96.46421928754556 4.339158212148129 M96.70316977658177 3.1121979531508885 C96.64823158974285 3.3942939313788845, 96.59329340290392 3.67638990960688, 96.46421928754556 4.339158212148129 M96.46421928754556 4.339158212148129 C96.39205263670083 4.614360929043452, 96.31988598585608 4.889563645938777, 96.14714813421489 5.548287939305125 M96.46421928754556 4.339158212148129 C96.37106744872835 4.6943865458204845, 96.27791560991113 5.0496148794928395, 96.14714813421489 5.548287939305125 M96.14714813421489 5.548287939305125 C96.05019959400192 5.840281495774367, 95.95325105378897 6.132275052243609, 95.75325922997033 6.734618561215495 M96.14714813421489 5.548287939305125 C96.05340769435698 5.8306192086463495, 95.95966725449905 6.112950477987574, 95.75325922997033 6.734618561215495 M95.75325922997033 6.734618561215495 C95.59215035759618 7.132560590807793, 95.43104148522202 7.530502620400091, 95.28417114880834 7.893275190886679 M95.75325922997033 6.734618561215495 C95.57639213669789 7.171483701091044, 95.39952504342544 7.608348840966594, 95.28417114880834 7.893275190886679 M95.28417114880834 7.893275190886679 C95.10410347733098 8.267189563540375, 94.92403580585362 8.641103936194073, 94.7418114742735 9.019496659696284 M95.28417114880834 7.893275190886679 C95.08647151525811 8.303802710048242, 94.88877188170788 8.714330229209803, 94.7418114742735 9.019496659696284 M94.7418114742735 9.019496659696284 C94.54802196948194 9.363589548768939, 94.35423246469038 9.707682437841596, 94.12840887860425 10.108655082055236 M94.7418114742735 9.019496659696284 C94.5146827647574 9.422786682717915, 94.2875540552413 9.826076705739544, 94.12840887860425 10.108655082055236 M94.12840887860425 10.108655082055236 C93.97161176881251 10.349537548614725, 93.81481465902075 10.590420015174212, 93.44648396464065 11.156274872382301 M94.12840887860425 10.108655082055236 C93.9092206834102 10.445387010144923, 93.69003248821615 10.782118938234609, 93.44648396464065 11.156274872382301 M93.44648396464065 11.156274872382301 C93.23033914952128 11.445889233444502, 93.01419433440192 11.735503594506701, 92.69883890812659 12.158051136245302 M93.44648396464065 11.156274872382301 C93.19227845998047 11.49688709002905, 92.9380729553203 11.837499307675799, 92.69883890812659 12.158051136245302 M92.69883890812659 12.158051136245302 C92.49116550682159 12.40199613036945, 92.28349210551659 12.6459411244936, 91.88854594296866 13.10986736009567 M92.69883890812659 12.158051136245302 C92.52824432036034 12.358441246142563, 92.3576497325941 12.558831356039825, 91.88854594296866 13.10986736009567 M91.88854594296866 13.10986736009567 C91.62683324989308 13.38010720270791, 91.3651205568175 13.650347045320148, 91.01893473676799 14.007812326905684 M91.88854594296866 13.10986736009567 C91.63012755051653 13.376705566847086, 91.3717091580644 13.643543773598504, 91.01893473676799 14.007812326905684 M91.01893473676799 14.007812326905684 C90.8076890239151 14.199660094063402, 90.5964433110622 14.39150786122112, 90.0935787085019 14.848196188198111 M91.01893473676799 14.007812326905684 C90.77752346498792 14.227055656544108, 90.53611219320786 14.44629898618253, 90.0935787085019 14.848196188198111 M90.0935787085019 14.848196188198111 C89.87543627431413 15.022158974448889, 89.65729384012634 15.196121760699668, 89.11628034457871 15.627565626425152 M90.0935787085019 14.848196188198111 C89.71892209386493 15.146974868339857, 89.34426547922797 15.445753548481601, 89.11628034457871 15.627565626425152 M89.11628034457871 15.627565626425152 C88.7889825989759 15.855874365266622, 88.46168485337309 16.084183104108092, 88.0910555736057 16.34271804539089 M89.11628034457871 15.627565626425152 C88.81221097820892 15.839671253453998, 88.50814161183914 16.051776880482844, 88.0910555736057 16.34271804539089 M88.0910555736057 16.34271804539089 C87.70968892629666 16.57390474814881, 87.32832227898764 16.80509145090673, 87.02211726407678 16.990714730406093 M88.0910555736057 16.34271804539089 C87.77089297401511 16.536802494746976, 87.45073037442454 16.730886944103066, 87.02211726407678 16.990714730406093 M87.02211726407678 16.990714730406093 C86.76726283685454 17.12367212184589, 86.51240840963229 17.256629513285684, 85.91385791279238 17.56889292409717 M87.02211726407678 16.990714730406093 C86.7890484904815 17.112306560303075, 86.55597971688623 17.233898390200054, 85.91385791279238 17.56889292409717 M85.91385791279238 17.56889292409717 C85.60391701667386 17.706094564738823, 85.29397612055533 17.843296205380476, 84.7708315951478 18.07487676824742 M85.91385791279238 17.56889292409717 C85.46287211979715 17.768530956637928, 85.01188632680193 17.968168989178686, 84.7708315951478 18.07487676824742 M84.7708315951478 18.07487676824742 C84.34513071306085 18.231538627991235, 83.91942983097391 18.38820048773505, 83.59773525146062 18.506587066708033 M84.7708315951478 18.07487676824742 C84.51029260428551 18.17075752528077, 84.24975361342324 18.266638282314123, 83.59773525146062 18.506587066708033 M83.59773525146062 18.506587066708033 C83.32148592539976 18.588576416620594, 83.0452365993389 18.670565766533155, 82.39938938623541 18.86224982926107 M83.59773525146062 18.506587066708033 C83.13670696905027 18.64341784094059, 82.67567868663993 18.780248615173143, 82.39938938623541 18.86224982926107 M82.39938938623541 18.86224982926107 C82.04837994424634 18.942365443844405, 81.69737050225727 19.022481058427736, 81.18071825967677 19.140403561325773 M82.39938938623541 18.86224982926107 C82.10286482904108 18.929929624437104, 81.80634027184675 18.99760941961314, 81.18071825967677 19.140403561325773 M81.18071825967677 19.140403561325773 C80.72231917062352 19.214513971105873, 80.26392008157028 19.288624380885974, 79.94672965284788 19.3399052695533 M81.18071825967677 19.140403561325773 C80.78622164336043 19.204182714884848, 80.3917250270441 19.26796186844392, 79.94672965284788 19.3399052695533 M79.94672965284788 19.3399052695533 C79.62137752193843 19.37129159832895, 79.29602539102898 19.402677927104598, 78.7024942896239 19.45993515863156 M79.94672965284788 19.3399052695533 C79.56793414762933 19.376447216373485, 79.18913864241078 19.41298916319367, 78.7024942896239 19.45993515863156 M78.7024942896239 19.45993515863156 C78.3817092588149 19.47022211019942, 78.06092422800587 19.48050906176728, 77.453125 19.5 M78.7024942896239 19.45993515863156 C78.20797851459959 19.475793317020024, 77.71346273957528 19.49165147540849, 77.453125 19.5 M77.453125 19.5 C77.453125 19.5, 77.453125 19.5, 77.453125 19.5 M77.453125 19.5 C77.453125 19.5, 77.453125 19.5, 77.453125 19.5 M77.453125 19.5 C43.589343950574666 19.5, 9.725562901149331 19.5, -77.453125 19.5 M77.453125 19.5 C21.042836519986345 19.5, -35.36745196002731 19.5, -77.453125 19.5 M-77.453125 19.5 C-77.90026212736126 19.485661182625144, -78.34739925472252 19.47132236525029, -78.7024942896239 19.45993515863156 M-77.453125 19.5 C-77.9240706957939 19.484897688176076, -78.3950163915878 19.469795376352156, -78.7024942896239 19.45993515863156 M-78.7024942896239 19.45993515863156 C-79.0872006928765 19.422822994586923, -79.47190709612909 19.385710830542287, -79.94672965284786 19.3399052695533 M-78.7024942896239 19.45993515863156 C-79.07389359520866 19.424106714294812, -79.44529290079342 19.388278269958064, -79.94672965284786 19.3399052695533 M-79.94672965284786 19.3399052695533 C-80.22094715333854 19.295571910662442, -80.4951646538292 19.25123855177159, -81.18071825967675 19.140403561325773 M-79.94672965284786 19.3399052695533 C-80.20563498578355 19.2980474631651, -80.46454031871924 19.2561896567769, -81.18071825967675 19.140403561325773 M-81.18071825967675 19.140403561325773 C-81.53286504304668 19.060028355994106, -81.8850118264166 18.97965315066244, -82.39938938623538 18.862249829261074 M-81.18071825967675 19.140403561325773 C-81.51852166457834 19.06330213853021, -81.85632506947994 18.98620071573465, -82.39938938623538 18.862249829261074 M-82.39938938623538 18.862249829261074 C-82.78431077890258 18.748007180411072, -83.16923217156979 18.633764531561066, -83.59773525146059 18.506587066708043 M-82.39938938623538 18.862249829261074 C-82.67331846092114 18.7809491177774, -82.94724753560688 18.699648406293726, -83.59773525146059 18.506587066708043 M-83.59773525146059 18.506587066708043 C-83.96109651700773 18.37286676211198, -84.32445778255487 18.23914645751591, -84.7708315951478 18.074876768247425 M-83.59773525146059 18.506587066708043 C-83.85259203556633 18.412797414286846, -84.10744881967206 18.31900776186565, -84.7708315951478 18.074876768247425 M-84.7708315951478 18.074876768247425 C-85.12546483183266 17.91789115418823, -85.48009806851753 17.760905540129034, -85.91385791279238 17.568892924097174 M-84.7708315951478 18.074876768247425 C-85.20417188984402 17.883049874368524, -85.63751218454026 17.69122298048962, -85.91385791279238 17.568892924097174 M-85.91385791279238 17.568892924097174 C-86.28195566069185 17.376856564795887, -86.6500534085913 17.184820205494596, -87.02211726407678 16.990714730406097 M-85.91385791279238 17.568892924097174 C-86.28219879726133 17.37672972060332, -86.65053968173028 17.184566517109463, -87.02211726407678 16.990714730406097 M-87.02211726407678 16.990714730406097 C-87.44427719468018 16.73479889958719, -87.86643712528358 16.47888306876828, -88.09105557360569 16.3427180453909 M-87.02211726407678 16.990714730406097 C-87.31856977227932 16.811003477785405, -87.61502228048185 16.631292225164714, -88.09105557360569 16.3427180453909 M-88.09105557360569 16.3427180453909 C-88.46633328802385 16.080940557323213, -88.84161100244202 15.819163069255527, -89.11628034457871 15.627565626425156 M-88.09105557360569 16.3427180453909 C-88.33879282064038 16.16990726623208, -88.58653006767506 15.99709648707326, -89.11628034457871 15.627565626425156 M-89.11628034457871 15.627565626425156 C-89.35772917878973 15.435016606365197, -89.59917801300072 15.242467586305237, -90.09357870850187 14.848196188198125 M-89.11628034457871 15.627565626425156 C-89.4274028369265 15.379453718095021, -89.7385253292743 15.131341809764885, -90.09357870850187 14.848196188198125 M-90.09357870850187 14.848196188198125 C-90.45949975413502 14.515876376294411, -90.8254207997682 14.183556564390697, -91.01893473676797 14.007812326905697 M-90.09357870850187 14.848196188198125 C-90.46034158235813 14.515111850175748, -90.82710445621439 14.18202751215337, -91.01893473676797 14.007812326905697 M-91.01893473676797 14.007812326905697 C-91.36014457025628 13.65548515998071, -91.70135440374457 13.303157993055722, -91.88854594296865 13.109867360095677 M-91.01893473676797 14.007812326905697 C-91.20733411915755 13.813274496711502, -91.39573350154713 13.618736666517309, -91.88854594296865 13.109867360095677 M-91.88854594296865 13.109867360095677 C-92.1528549649849 12.79939494322598, -92.41716398700116 12.488922526356285, -92.69883890812658 12.158051136245307 M-91.88854594296865 13.109867360095677 C-92.1672841401704 12.782445613009765, -92.44602233737216 12.45502386592385, -92.69883890812658 12.158051136245307 M-92.69883890812658 12.158051136245307 C-92.97266169300697 11.79115355027447, -93.24648447788736 11.424255964303635, -93.44648396464063 11.156274872382316 M-92.69883890812658 12.158051136245307 C-92.86286988180689 11.938264575042808, -93.0269008554872 11.71847801384031, -93.44648396464063 11.156274872382316 M-93.44648396464063 11.156274872382316 C-93.662006723454 10.82517403888086, -93.87752948226735 10.494073205379404, -94.12840887860425 10.108655082055249 M-93.44648396464063 11.156274872382316 C-93.5916337025963 10.933285896720326, -93.73678344055195 10.710296921058339, -94.12840887860425 10.108655082055249 M-94.12840887860425 10.108655082055249 C-94.30689951776456 9.791726878088992, -94.4853901569249 9.474798674122736, -94.7418114742735 9.019496659696289 M-94.12840887860425 10.108655082055249 C-94.26371969310333 9.868397029206411, -94.3990305076024 9.628138976357574, -94.7418114742735 9.019496659696289 M-94.7418114742735 9.019496659696289 C-94.89874164563396 8.69362780109854, -95.05567181699442 8.367758942500789, -95.28417114880834 7.893275190886686 M-94.7418114742735 9.019496659696289 C-94.91725201225577 8.655190628749958, -95.09269255023803 8.290884597803629, -95.28417114880834 7.893275190886686 M-95.28417114880834 7.893275190886686 C-95.38512422502644 7.643919140833016, -95.48607730124455 7.3945630907793465, -95.75325922997033 6.73461856121551 M-95.28417114880834 7.893275190886686 C-95.46631571378083 7.443374593879032, -95.64846027875333 6.993473996871376, -95.75325922997033 6.73461856121551 M-95.75325922997033 6.73461856121551 C-95.85643032597099 6.423883658143323, -95.95960142197166 6.113148755071135, -96.14714813421489 5.5482879393051325 M-95.75325922997033 6.73461856121551 C-95.8831867507685 6.343297569710589, -96.01311427156666 5.951976578205668, -96.14714813421489 5.5482879393051325 M-96.14714813421489 5.5482879393051325 C-96.21353185397295 5.295138044981492, -96.27991557373102 5.041988150657851, -96.46421928754556 4.339158212148136 M-96.14714813421489 5.5482879393051325 C-96.21509059433835 5.289193892405878, -96.28303305446181 5.030099845506625, -96.46421928754556 4.339158212148136 M-96.46421928754556 4.339158212148136 C-96.55795612226217 3.8578393771653605, -96.65169295697878 3.3765205421825852, -96.70316977658177 3.112197953150904 M-96.46421928754556 4.339158212148136 C-96.53010083181256 4.000870406406361, -96.59598237607958 3.662582600664586, -96.70316977658177 3.112197953150904 M-96.70316977658177 3.112197953150904 C-96.7568317894976 2.696005977738852, -96.81049380241342 2.2798140023268, -96.86301770250937 1.872449005199809 M-96.70316977658177 3.112197953150904 C-96.76627236277449 2.6227867556552793, -96.82937494896721 2.1333755581596545, -96.86301770250937 1.872449005199809 M-96.86301770250937 1.872449005199809 C-96.8943403947062 1.384572791011956, -96.92566308690304 0.8966965768241031, -96.94310621591342 0.6250057626472781 M-96.86301770250937 1.872449005199809 C-96.88815130068362 1.4809729261604876, -96.91328489885788 1.0894968471211661, -96.94310621591342 0.6250057626472781 M-96.94310621591342 0.6250057626472781 C-96.94310621591342 0.2344033036417471, -96.94310621591342 -0.15619915536378393, -96.94310621591342 -0.6250057626472687 M-96.94310621591342 0.6250057626472781 C-96.94310621591342 0.33054715278923036, -96.94310621591342 0.03608854293118258, -96.94310621591342 -0.6250057626472687 M-96.94310621591342 -0.6250057626472687 C-96.9115424442454 -1.1166369841945343, -96.87997867257738 -1.6082682057417999, -96.86301770250937 -1.8724490051997822 M-96.94310621591342 -0.6250057626472687 C-96.92485681895475 -0.9092548509265896, -96.90660742199609 -1.1935039392059106, -96.86301770250937 -1.8724490051997822 M-96.86301770250937 -1.8724490051997822 C-96.8274267605069 -2.1484853231445395, -96.79183581850441 -2.424521641089297, -96.70316977658177 -3.112197953150895 M-96.86301770250937 -1.8724490051997822 C-96.82356211119071 -2.1784587800794686, -96.78410651987207 -2.4844685549591556, -96.70316977658177 -3.112197953150895 M-96.70316977658177 -3.112197953150895 C-96.63320067021394 -3.4714745263739, -96.56323156384609 -3.8307510995969047, -96.46421928754556 -4.339158212148126 M-96.70316977658177 -3.112197953150895 C-96.63727395543698 -3.450559067642661, -96.57137813429219 -3.7889201821344267, -96.46421928754556 -4.339158212148126 M-96.46421928754556 -4.339158212148126 C-96.35016297870996 -4.7741043500551985, -96.23610666987437 -5.209050487962271, -96.14714813421489 -5.548287939305123 M-96.46421928754556 -4.339158212148126 C-96.37551246621152 -4.677435767674407, -96.28680564487748 -5.015713323200688, -96.14714813421489 -5.548287939305123 M-96.14714813421489 -5.548287939305123 C-96.01130773256253 -5.957417585853245, -95.87546733091015 -6.366547232401368, -95.75325922997033 -6.734618561215485 M-96.14714813421489 -5.548287939305123 C-96.0090041100191 -5.964355729921595, -95.87086008582332 -6.380423520538067, -95.75325922997033 -6.734618561215485 M-95.75325922997033 -6.734618561215485 C-95.59290405148406 -7.130698952333037, -95.43254887299778 -7.526779343450589, -95.28417114880834 -7.893275190886676 M-95.75325922997033 -6.734618561215485 C-95.65238084015928 -6.983790134399745, -95.55150245034824 -7.232961707584005, -95.28417114880834 -7.893275190886676 M-95.28417114880834 -7.893275190886676 C-95.16574940977995 -8.139180465798432, -95.04732767075156 -8.385085740710188, -94.7418114742735 -9.019496659696282 M-95.28417114880834 -7.893275190886676 C-95.08571604482471 -8.305371460567681, -94.88726094084107 -8.717467730248686, -94.7418114742735 -9.019496659696282 M-94.7418114742735 -9.019496659696282 C-94.53463482954965 -9.387359771313655, -94.32745818482577 -9.75522288293103, -94.12840887860425 -10.108655082055243 M-94.7418114742735 -9.019496659696282 C-94.5216105111743 -9.410485767444325, -94.30140954807509 -9.801474875192365, -94.12840887860425 -10.108655082055243 M-94.12840887860425 -10.108655082055243 C-93.90526887600669 -10.451458047525588, -93.68212887340913 -10.794261012995934, -93.44648396464063 -11.156274872382308 M-94.12840887860425 -10.108655082055243 C-93.96201920932182 -10.364274295955303, -93.7956295400394 -10.61989350985536, -93.44648396464063 -11.156274872382308 M-93.44648396464063 -11.156274872382308 C-93.24392274690038 -11.42768845044768, -93.04136152916014 -11.699102028513053, -92.69883890812659 -12.158051136245302 M-93.44648396464063 -11.156274872382308 C-93.23838088405579 -11.435114041785347, -93.03027780347095 -11.713953211188388, -92.69883890812659 -12.158051136245302 M-92.69883890812659 -12.158051136245302 C-92.47893161188316 -12.416366759492469, -92.25902431563973 -12.674682382739638, -91.88854594296866 -13.10986736009567 M-92.69883890812659 -12.158051136245302 C-92.48684414200473 -12.40707225137596, -92.27484937588287 -12.656093366506617, -91.88854594296866 -13.10986736009567 M-91.88854594296866 -13.10986736009567 C-91.70864014542506 -13.295634866600107, -91.52873434788147 -13.481402373104546, -91.01893473676799 -14.007812326905677 M-91.88854594296866 -13.10986736009567 C-91.67503149270124 -13.330338559859163, -91.46151704243381 -13.550809759622654, -91.01893473676799 -14.007812326905677 M-91.01893473676799 -14.007812326905677 C-90.7092530984569 -14.28905699709267, -90.3995714601458 -14.570301667279665, -90.0935787085019 -14.848196188198107 M-91.01893473676799 -14.007812326905677 C-90.74816128984011 -14.25372160713277, -90.47738784291222 -14.49963088735986, -90.0935787085019 -14.848196188198107 M-90.0935787085019 -14.848196188198107 C-89.72556643883543 -15.14167618003933, -89.35755416916895 -15.435156171880552, -89.11628034457871 -15.627565626425149 M-90.0935787085019 -14.848196188198107 C-89.76934765794746 -15.106761822864655, -89.44511660739302 -15.365327457531201, -89.11628034457871 -15.627565626425149 M-89.11628034457871 -15.627565626425149 C-88.86274115835919 -15.804423587197414, -88.60920197213966 -15.98128154796968, -88.09105557360571 -16.342718045390885 M-89.11628034457871 -15.627565626425149 C-88.90706182093577 -15.77350741159455, -88.69784329729282 -15.919449196763953, -88.09105557360571 -16.342718045390885 M-88.09105557360571 -16.342718045390885 C-87.83441029691579 -16.498297920335368, -87.57776502022587 -16.653877795279854, -87.02211726407678 -16.99071473040609 M-88.09105557360571 -16.342718045390885 C-87.73621834277354 -16.55782245997638, -87.38138111194135 -16.772926874561875, -87.02211726407678 -16.99071473040609 M-87.02211726407678 -16.99071473040609 C-86.60888821894746 -17.206296058564227, -86.19565917381813 -17.421877386722368, -85.9138579127924 -17.56889292409717 M-87.02211726407678 -16.99071473040609 C-86.7775950351981 -17.118281820588138, -86.53307280631941 -17.24584891077019, -85.9138579127924 -17.56889292409717 M-85.9138579127924 -17.56889292409717 C-85.50008867599813 -17.75205629119768, -85.08631943920388 -17.935219658298184, -84.77083159514781 -18.07487676824742 M-85.9138579127924 -17.56889292409717 C-85.4611881214198 -17.769276412765556, -85.0085183300472 -17.969659901433943, -84.77083159514781 -18.07487676824742 M-84.77083159514781 -18.07487676824742 C-84.45123751514555 -18.192490343983543, -84.13164343514327 -18.31010391971967, -83.59773525146062 -18.506587066708033 M-84.77083159514781 -18.07487676824742 C-84.43907081096641 -18.196967803589242, -84.10731002678503 -18.319058838931063, -83.59773525146062 -18.506587066708033 M-83.59773525146062 -18.506587066708033 C-83.31072552575557 -18.591770046752497, -83.02371580005052 -18.676953026796962, -82.39938938623541 -18.862249829261067 M-83.59773525146062 -18.506587066708033 C-83.344678783515 -18.581692898073786, -83.09162231556938 -18.65679872943954, -82.39938938623541 -18.862249829261067 M-82.39938938623541 -18.862249829261067 C-82.1324502756605 -18.9231769393093, -81.86551116508559 -18.984104049357533, -81.18071825967677 -19.140403561325773 M-82.39938938623541 -18.862249829261067 C-82.00257150891089 -18.95282092028174, -81.60575363158637 -19.043392011302416, -81.18071825967677 -19.140403561325773 M-81.18071825967677 -19.140403561325773 C-80.69849563902834 -19.218365574939938, -80.2162730183799 -19.2963275885541, -79.94672965284788 -19.3399052695533 M-81.18071825967677 -19.140403561325773 C-80.69824478930191 -19.218406130378334, -80.21577131892707 -19.2964086994309, -79.94672965284788 -19.3399052695533 M-79.94672965284788 -19.3399052695533 C-79.52468581392743 -19.380619331111976, -79.10264197500697 -19.421333392670654, -78.7024942896239 -19.45993515863156 M-79.94672965284788 -19.3399052695533 C-79.62968149798876 -19.370490523746366, -79.31263334312965 -19.40107577793943, -78.7024942896239 -19.45993515863156 M-78.7024942896239 -19.45993515863156 C-78.37546892261979 -19.47042222563512, -78.04844355561568 -19.480909292638678, -77.453125 -19.5 M-78.7024942896239 -19.45993515863156 C-78.28875003326276 -19.473203131628722, -77.8750057769016 -19.48647110462588, -77.453125 -19.5 M-77.453125 -19.5 C-77.453125 -19.5, -77.453125 -19.5, -77.453125 -19.5 M-77.453125 -19.5 C-77.453125 -19.5, -77.453125 -19.5, -77.453125 -19.5" stroke="#ccc" stroke-width="1.3" fill="none" stroke-dasharray="0 0" style=""/></g><g class="label" style="" transform="translate(-84.578125, -12)"><rect/><foreignObject width="169.15625" height="24"><div xmlns="http://www.w3.org/1999/xhtml" style="display: table-cell; white-space: nowrap; line-height: 1.5; max-width: 200px; text-align: center;"><span class="nodeLabel"><p>duplicates · gaps · links</p></span></div></foreignObject></g></g></g></g></g><defs><filter id="my-svg-drop-shadow" height="130%" width="130%"><feDropShadow dx="4" dy="4" stdDeviation="0" flood-opacity="0.06" flood-color="#FFFFFF"/></filter></defs><defs><filter id="my-svg-drop-shadow-small" height="150%" width="150%"><feDropShadow dx="2" dy="2" stdDeviation="0" flood-opacity="0.06" flood-color="#FFFFFF"/></filter></defs><linearGradient id="my-svg-gradient" gradientUnits="objectBoundingBox" x1="0%" y1="0%" x2="100%" y2="0%"><stop offset="0%" stop-color="#cccccc" stop-opacity="1"/><stop offset="100%" stop-color="hsl(180, 0%, 18.3529411765%)" stop-opacity="1"/></linearGradient></svg>
